<?xml version="1.0" encoding="utf-8"?>
<!-- Generator: Adobe Illustrator 25.0.0, SVG Export Plug-In . SVG Version: 6.00 Build 0)  -->
<svg version="1.0" id="圖層_1" xmlns="http://www.w3.org/2000/svg" xmlns:xlink="http://www.w3.org/1999/xlink" x="0px" y="0px"
	 viewBox="0 0 316.2 66.7" enable-background="new 0 0 316.2 66.7" xml:space="preserve">
<g>
	<g>
		<g>
			<linearGradient id="SVGID_1_" gradientUnits="userSpaceOnUse" x1="247.9357" y1="26.431" x2="267.2948" y2="26.431">
				<stop  offset="0" style="stop-color:#FFC8AA"/>
				<stop  offset="3.258800e-02" style="stop-color:#FF94D5;stop-opacity:0.97"/>
				<stop  offset="6.610756e-02" style="stop-color:#BFC3FF;stop-opacity:0.91"/>
				<stop  offset="1" style="stop-color:#BFCAFF;stop-opacity:0"/>
			</linearGradient>
			<path fill="url(#SVGID_1_)" d="M257.4,26.3c0,0-0.1-0.2-0.3-0.6c-1-2.1-4.5-9-8.5-7.5c0,0-1.7,1.9,0,1.4c1.7-0.5,2.2,7.2,2.2,7.2
				s4.9-0.4,5.5,0.5c0.6,0.9-4-3-5.4,3s4.6,4.7,4.6,4.7l2.2-4.8l2.7,4.7c0,0,4-0.5,3.7-3.8s-1.2-3.7-1.2-3.7l-2.4-0.7
				c0,0,3.9-0.1,3.9-0.2c0.1,0,1.6-3.4,1.2-4.4c-0.4-1,1.6-1.9,1.6-4.1s-5.2,1.9-5.2,1.9L257.4,26.3z"/>
			<linearGradient id="SVGID_2_" gradientUnits="userSpaceOnUse" x1="257.1578" y1="25.7489" x2="258.0326" y2="25.7489">
				<stop  offset="0" style="stop-color:#FFC8AA"/>
				<stop  offset="3.258800e-02" style="stop-color:#FF94D5;stop-opacity:0.97"/>
				<stop  offset="6.610756e-02" style="stop-color:#BFC3FF;stop-opacity:0.91"/>
				<stop  offset="1" style="stop-color:#BFCAFF;stop-opacity:0"/>
			</linearGradient>
			<polygon fill="url(#SVGID_2_)" points="257.2,25.1 257.2,25.1 257.3,26 257.5,26.4 258,25.1 			"/>
			<linearGradient id="SVGID_3_" gradientUnits="userSpaceOnUse" x1="256.3072" y1="22.1956" x2="256.3072" y2="22.1956">
				<stop  offset="0" style="stop-color:#FFC8AA"/>
				<stop  offset="3.258800e-02" style="stop-color:#FF94D5;stop-opacity:0.97"/>
				<stop  offset="6.610756e-02" style="stop-color:#BFC3FF;stop-opacity:0.91"/>
				<stop  offset="1" style="stop-color:#BFCAFF;stop-opacity:0"/>
			</linearGradient>
			<path fill="url(#SVGID_3_)" d="M256.3,22.2"/>
			<linearGradient id="SVGID_4_" gradientUnits="userSpaceOnUse" x1="259.1419" y1="22.5432" x2="259.1419" y2="22.5432">
				<stop  offset="0" style="stop-color:#FFC8AA"/>
				<stop  offset="3.258800e-02" style="stop-color:#FF94D5;stop-opacity:0.97"/>
				<stop  offset="6.610756e-02" style="stop-color:#BFC3FF;stop-opacity:0.91"/>
				<stop  offset="1" style="stop-color:#BFCAFF;stop-opacity:0"/>
			</linearGradient>
			<path fill="url(#SVGID_4_)" d="M259.1,22.5"/>
			<linearGradient id="SVGID_5_" gradientUnits="userSpaceOnUse" x1="257.8793" y1="25.0668" x2="257.8793" y2="25.0668">
				<stop  offset="0" style="stop-color:#FFC8AA"/>
				<stop  offset="3.258800e-02" style="stop-color:#FF94D5;stop-opacity:0.97"/>
				<stop  offset="6.610756e-02" style="stop-color:#BFC3FF;stop-opacity:0.91"/>
				<stop  offset="1" style="stop-color:#BFCAFF;stop-opacity:0"/>
			</linearGradient>
			<path fill="url(#SVGID_5_)" d="M257.9,25.1"/>
		</g>
		<linearGradient id="SVGID_6_" gradientUnits="userSpaceOnUse" x1="256.0936" y1="22.9714" x2="257.4616" y2="22.9714">
			<stop  offset="0" style="stop-color:#FFC8AA"/>
			<stop  offset="3.258800e-02" style="stop-color:#FF94D5;stop-opacity:0.97"/>
			<stop  offset="6.610756e-02" style="stop-color:#BFC3FF;stop-opacity:0.91"/>
			<stop  offset="1" style="stop-color:#BFCAFF;stop-opacity:0"/>
		</linearGradient>
		<path fill="url(#SVGID_6_)" d="M256.1,20.9c0.5,1.4,0.9,2.7,1.4,4.1"/>
		<linearGradient id="SVGID_7_" gradientUnits="userSpaceOnUse" x1="257.7531" y1="23.0989" x2="259.3764" y2="23.0989">
			<stop  offset="0" style="stop-color:#FFC8AA"/>
			<stop  offset="3.258800e-02" style="stop-color:#FF94D5;stop-opacity:0.97"/>
			<stop  offset="6.610756e-02" style="stop-color:#BFC3FF;stop-opacity:0.91"/>
			<stop  offset="1" style="stop-color:#BFCAFF;stop-opacity:0"/>
		</linearGradient>
		<path fill="url(#SVGID_7_)" d="M259.4,21.1c-0.5,1.3-1.1,2.6-1.6,3.9"/>
	</g>
	<g>
		<g>
			<linearGradient id="SVGID_8_" gradientUnits="userSpaceOnUse" x1="60.0013" y1="23.0915" x2="86.3167" y2="23.0915">
				<stop  offset="0" style="stop-color:#FFF8BF"/>
				<stop  offset="1" style="stop-color:#FFBFED;stop-opacity:0"/>
			</linearGradient>
			<path fill="url(#SVGID_8_)" d="M72.9,22.9c0,0-0.1-0.3-0.3-0.7c-1.3-2.7-6.1-11.5-11.5-9.6c0,0-2.3,2.4,0,1.8s3,9.3,3,9.3
				s6.6-0.5,7.5,0.7c0.8,1.2-5.4-3.9-7.4,3.9c-2,7.7,6.2,6.1,6.2,6.1l3-6.1l3.6,6c0,0,5.4-0.6,5.1-4.8c-0.4-4.2-1.6-4.7-1.6-4.7
				l-3.3-0.9c0,0,5.2-0.2,5.3-0.2s2.2-4.4,1.7-5.7c-0.6-1.3,2.2-2.5,2.2-5.3S79.3,15,79.3,15L72.9,22.9z"/>
			<linearGradient id="SVGID_9_" gradientUnits="userSpaceOnUse" x1="72.5372" y1="22.2181" x2="73.7263" y2="22.2181">
				<stop  offset="0" style="stop-color:#FFF8BF"/>
				<stop  offset="1" style="stop-color:#FFBFED;stop-opacity:0"/>
			</linearGradient>
			<polygon fill="url(#SVGID_9_)" points="72.7,21.3 72.5,21.3 72.7,22.5 73,23.1 73.7,21.3 			"/>
			<linearGradient id="SVGID_10_" gradientUnits="userSpaceOnUse" x1="71.381" y1="17.6679" x2="71.381" y2="17.6679">
				<stop  offset="0" style="stop-color:#FFF8BF"/>
				<stop  offset="1" style="stop-color:#FFBFED;stop-opacity:0"/>
			</linearGradient>
			<path fill="url(#SVGID_10_)" d="M71.4,17.7"/>
			<linearGradient id="SVGID_11_" gradientUnits="userSpaceOnUse" x1="75.2342" y1="18.1131" x2="75.2342" y2="18.1131">
				<stop  offset="0" style="stop-color:#FFF8BF"/>
				<stop  offset="1" style="stop-color:#FFBFED;stop-opacity:0"/>
			</linearGradient>
			<path fill="url(#SVGID_11_)" d="M75.2,18.1"/>
			<linearGradient id="SVGID_12_" gradientUnits="userSpaceOnUse" x1="73.5179" y1="21.3447" x2="73.5179" y2="21.3447">
				<stop  offset="0" style="stop-color:#FFF8BF"/>
				<stop  offset="1" style="stop-color:#FFBFED;stop-opacity:0"/>
			</linearGradient>
			<path fill="url(#SVGID_12_)" d="M73.5,21.3"/>
		</g>
		<linearGradient id="SVGID_13_" gradientUnits="userSpaceOnUse" x1="71.0906" y1="18.6613" x2="72.9501" y2="18.6613">
			<stop  offset="0" style="stop-color:#FFF8BF"/>
			<stop  offset="1" style="stop-color:#FFBFED;stop-opacity:0"/>
		</linearGradient>
		<path fill="url(#SVGID_13_)" d="M71.1,16c0.6,1.7,1.2,3.5,1.9,5.2"/>
		<linearGradient id="SVGID_14_" gradientUnits="userSpaceOnUse" x1="73.3463" y1="18.8246" x2="75.553" y2="18.8246">
			<stop  offset="0" style="stop-color:#FFF8BF"/>
			<stop  offset="1" style="stop-color:#FFBFED;stop-opacity:0"/>
		</linearGradient>
		<path fill="url(#SVGID_14_)" d="M75.6,16.3c-0.7,1.7-1.5,3.4-2.2,5"/>
	</g>
	<g>
		<g>
			
				<linearGradient id="SVGID_15_" gradientUnits="userSpaceOnUse" x1="254.4268" y1="142.5907" x2="265.7562" y2="142.5907" gradientTransform="matrix(0.6995 0.7146 -0.7146 0.6995 199.4383 -251.3644)">
				<stop  offset="0" style="stop-color:#FF9497"/>
				<stop  offset="1" style="stop-color:#FFBFED;stop-opacity:0"/>
			</linearGradient>
			<path fill="url(#SVGID_15_)" d="M279.4,34.1c0,0,0-0.1,0.1-0.3c0.4-1.2,1.7-5.4-0.5-6.4c0,0-1.4,0-0.6,0.5
				c0.9,0.5-1.9,3.7-1.9,3.7s2.2,1.9,2,2.5c-0.1,0.6-0.4-2.8-3.4-1.1c-3,1.7,0,3.7,0,3.7l2.8-0.9l-0.8,2.9c0,0,1.8,1.5,3,0.1
				s1-1.9,1-1.9l-0.7-1.3c0,0,1.6,1.6,1.7,1.6s2-0.6,2.3-1.2c0.2-0.6,1.4-0.1,2.3-0.9c0.9-0.8-2.9-1.4-2.9-1.4L279.4,34.1z"/>
			
				<linearGradient id="SVGID_16_" gradientUnits="userSpaceOnUse" x1="259.8238" y1="142.2147" x2="260.3357" y2="142.2147" gradientTransform="matrix(0.6995 0.7146 -0.7146 0.6995 199.4383 -251.3644)">
				<stop  offset="0" style="stop-color:#FF9497"/>
				<stop  offset="1" style="stop-color:#FFBFED;stop-opacity:0"/>
			</linearGradient>
			<polygon fill="url(#SVGID_16_)" points="279.9,33.6 279.8,33.5 279.5,33.9 279.4,34.2 280.2,33.9 			"/>
			<linearGradient id="SVGID_17_" gradientUnits="userSpaceOnUse" x1="280.5999" y1="32.0689" x2="280.5999" y2="32.0689">
				<stop  offset="0" style="stop-color:#FF9497"/>
				<stop  offset="1" style="stop-color:#FFBFED;stop-opacity:0"/>
			</linearGradient>
			<path fill="url(#SVGID_17_)" d="M280.6,32.1"/>
			<linearGradient id="SVGID_18_" gradientUnits="userSpaceOnUse" x1="281.6233" y1="33.3885" x2="281.6233" y2="33.3885">
				<stop  offset="0" style="stop-color:#FF9497"/>
				<stop  offset="1" style="stop-color:#FFBFED;stop-opacity:0"/>
			</linearGradient>
			<path fill="url(#SVGID_18_)" d="M281.6,33.4"/>
			<linearGradient id="SVGID_19_" gradientUnits="userSpaceOnUse" x1="280.1122" y1="33.8336" x2="280.1122" y2="33.8336">
				<stop  offset="0" style="stop-color:#FF9497"/>
				<stop  offset="1" style="stop-color:#FFBFED;stop-opacity:0"/>
			</linearGradient>
			<path fill="url(#SVGID_19_)" d="M280.1,33.8"/>
		</g>
		
			<linearGradient id="SVGID_20_" gradientUnits="userSpaceOnUse" x1="259.201" y1="140.6834" x2="260.0016" y2="140.6834" gradientTransform="matrix(0.6995 0.7146 -0.7146 0.6995 199.4383 -251.3644)">
			<stop  offset="0" style="stop-color:#FF9497"/>
			<stop  offset="1" style="stop-color:#FFBFED;stop-opacity:0"/>
		</linearGradient>
		<path fill="url(#SVGID_20_)" d="M281,31.5c-0.4,0.7-0.7,1.4-1.1,2.2"/>
		
			<linearGradient id="SVGID_21_" gradientUnits="userSpaceOnUse" x1="260.1721" y1="140.7537" x2="261.1222" y2="140.7537" gradientTransform="matrix(0.6995 0.7146 -0.7146 0.6995 199.4383 -251.3644)">
			<stop  offset="0" style="stop-color:#FF9497"/>
			<stop  offset="1" style="stop-color:#FFBFED;stop-opacity:0"/>
		</linearGradient>
		<path fill="url(#SVGID_21_)" d="M282.3,32.9c-0.7,0.3-1.5,0.6-2.2,0.8"/>
	</g>
	<g>
		<g>
			<linearGradient id="SVGID_22_" gradientUnits="userSpaceOnUse" x1="85.232" y1="21.2435" x2="107.9877" y2="21.2435">
				<stop  offset="0" style="stop-color:#FFBFFD"/>
				<stop  offset="1" style="stop-color:#3DDEED;stop-opacity:0"/>
			</linearGradient>
			<path fill="url(#SVGID_22_)" d="M94.7,22.2c0,0,0-0.2,0-0.6c0.1-2.3,0.3-10.2-4.1-11c0,0-2.5,0.8-0.7,1.2
				c1.8,0.5-1.5,7.5-1.5,7.5s4.7,2.2,4.8,3.4c0.1,1.1-2.2-4.7-6.5-0.2c-4.3,4.5,1.9,6.5,1.9,6.5l4.4-3l0.1,5.5c0,0,3.9,1.7,5.3-1.3
				s0.7-3.8,0.7-3.8l-1.9-1.8c0,0,3.6,1.9,3.7,1.9c0.1,0,3.2-2.1,3.3-3.2c0.1-1.1,2.4-0.9,3.5-2.8c1.1-1.9-5.7-1.1-5.7-1.1
				L94.7,22.2z"/>
			<linearGradient id="SVGID_23_" gradientUnits="userSpaceOnUse" x1="94.7413" y1="21.6626" x2="95.925" y2="21.6626">
				<stop  offset="0" style="stop-color:#FFBFFD"/>
				<stop  offset="1" style="stop-color:#3DDEED;stop-opacity:0"/>
			</linearGradient>
			<polygon fill="url(#SVGID_23_)" points="95.2,21 95.1,21 94.8,21.8 94.7,22.3 95.9,21.4 			"/>
			<linearGradient id="SVGID_24_" gradientUnits="userSpaceOnUse" x1="95.75" y1="18.0348" x2="95.75" y2="18.0348">
				<stop  offset="0" style="stop-color:#FFBFFD"/>
				<stop  offset="1" style="stop-color:#3DDEED;stop-opacity:0"/>
			</linearGradient>
			<path fill="url(#SVGID_24_)" d="M95.8,18"/>
			<linearGradient id="SVGID_25_" gradientUnits="userSpaceOnUse" x1="98.1995" y1="19.8266" x2="98.1995" y2="19.8266">
				<stop  offset="0" style="stop-color:#FFBFFD"/>
				<stop  offset="1" style="stop-color:#3DDEED;stop-opacity:0"/>
			</linearGradient>
			<path fill="url(#SVGID_25_)" d="M98.2,19.8"/>
			<linearGradient id="SVGID_26_" gradientUnits="userSpaceOnUse" x1="95.7832" y1="21.362" x2="95.7832" y2="21.362">
				<stop  offset="0" style="stop-color:#FFBFFD"/>
				<stop  offset="1" style="stop-color:#3DDEED;stop-opacity:0"/>
			</linearGradient>
			<path fill="url(#SVGID_26_)" d="M95.8,21.4"/>
		</g>
		<linearGradient id="SVGID_27_" gradientUnits="userSpaceOnUse" x1="95.42" y1="18.9578" x2="96.1823" y2="18.9578">
			<stop  offset="0" style="stop-color:#FFBFFD"/>
			<stop  offset="1" style="stop-color:#3DDEED;stop-opacity:0"/>
		</linearGradient>
		<path fill="url(#SVGID_27_)" d="M96.2,16.8c-0.3,1.4-0.5,2.9-0.8,4.3"/>
		<linearGradient id="SVGID_28_" gradientUnits="userSpaceOnUse" x1="95.6664" y1="20.0075" x2="99.1152" y2="20.0075">
			<stop  offset="0" style="stop-color:#FFBFFD"/>
			<stop  offset="1" style="stop-color:#3DDEED;stop-opacity:0"/>
		</linearGradient>
		<path fill="url(#SVGID_28_)" d="M99.1,18.7c-1.1,0.9-2.3,1.7-3.4,2.6"/>
	</g>
	<g>
		<g>
			
				<linearGradient id="SVGID_29_" gradientUnits="userSpaceOnUse" x1="83.4777" y1="-56.3345" x2="121.1678" y2="-56.3345" gradientTransform="matrix(0.9123 -0.4096 0.4096 0.9123 -19.2781 133.5297)">
				<stop  offset="0" style="stop-color:#FFC8AA"/>
				<stop  offset="3.258800e-02" style="stop-color:#FF94D5;stop-opacity:0.97"/>
				<stop  offset="1" style="stop-color:#BFCAFF;stop-opacity:0"/>
			</linearGradient>
			<path fill="url(#SVGID_29_)" d="M50.5,40.2c0,0-0.3-0.2-0.8-0.6c-3-2.1-13.6-8.9-19.7-3.6c0,0-1.8,4,0.9,2s8.4,8.2,8.4,8.2
				s8.4-4.5,10.1-3.7c1.7,0.8-8.9-1-7.7,8.5c1.1,9.5,11.1,2.9,11.1,2.9l0.9-8.3l7.7,4.4c0,0,6.8-3.8,4.3-8.2
				c-2.6-4.4-4.4-4.1-4.4-4.1l-4.7,1c0,0,6.8-3.3,6.9-3.3c0.1-0.1,0.8-6-0.6-7.1c-1.4-1.1,1.6-4,0.2-7s-8,6.8-8,6.8L50.5,40.2z"/>
			
				<linearGradient id="SVGID_30_" gradientUnits="userSpaceOnUse" x1="101.4321" y1="-57.369" x2="103.1353" y2="-57.369" gradientTransform="matrix(0.9123 -0.4096 0.4096 0.9123 -19.2781 133.5297)">
				<stop  offset="0" style="stop-color:#FFC8AA"/>
				<stop  offset="3.258800e-02" style="stop-color:#FF94D5;stop-opacity:0.97"/>
				<stop  offset="1" style="stop-color:#BFCAFF;stop-opacity:0"/>
			</linearGradient>
			<polygon fill="url(#SVGID_30_)" points="49.5,38.6 49.3,38.7 50.1,39.9 50.8,40.3 50.9,38 			"/>
			<linearGradient id="SVGID_31_" gradientUnits="userSpaceOnUse" x1="46.0384" y1="35.409" x2="46.0384" y2="35.409">
				<stop  offset="0" style="stop-color:#FFC8AA"/>
				<stop  offset="3.258800e-02" style="stop-color:#FF94D5;stop-opacity:0.97"/>
				<stop  offset="1" style="stop-color:#BFCAFF;stop-opacity:0"/>
			</linearGradient>
			<path fill="url(#SVGID_31_)" d="M46,35.4"/>
			<linearGradient id="SVGID_32_" gradientUnits="userSpaceOnUse" x1="51.289" y1="33.6295" x2="51.289" y2="33.6295">
				<stop  offset="0" style="stop-color:#FFC8AA"/>
				<stop  offset="3.258800e-02" style="stop-color:#FF94D5;stop-opacity:0.97"/>
				<stop  offset="1" style="stop-color:#BFCAFF;stop-opacity:0"/>
			</linearGradient>
			<path fill="url(#SVGID_32_)" d="M51.3,33.6"/>
			<linearGradient id="SVGID_33_" gradientUnits="userSpaceOnUse" x1="50.6143" y1="38.1283" x2="50.6143" y2="38.1283">
				<stop  offset="0" style="stop-color:#FFC8AA"/>
				<stop  offset="3.258800e-02" style="stop-color:#FF94D5;stop-opacity:0.97"/>
				<stop  offset="1" style="stop-color:#BFCAFF;stop-opacity:0"/>
			</linearGradient>
			<path fill="url(#SVGID_33_)" d="M50.6,38.1"/>
		</g>
		
			<linearGradient id="SVGID_34_" gradientUnits="userSpaceOnUse" x1="99.3603" y1="-61.5819" x2="102.0237" y2="-61.5819" gradientTransform="matrix(0.9123 -0.4096 0.4096 0.9123 -19.2781 133.5297)">
			<stop  offset="0" style="stop-color:#FFC8AA"/>
			<stop  offset="3.258800e-02" style="stop-color:#FF94D5;stop-opacity:0.97"/>
			<stop  offset="1" style="stop-color:#BFCAFF;stop-opacity:0"/>
		</linearGradient>
		<path fill="url(#SVGID_34_)" d="M44.9,33.8c1.7,1.5,3.3,3.1,5,4.6"/>
		
			<linearGradient id="SVGID_35_" gradientUnits="userSpaceOnUse" x1="102.591" y1="-61.3885" x2="105.7515" y2="-61.3885" gradientTransform="matrix(0.9123 -0.4096 0.4096 0.9123 -19.2781 133.5297)">
			<stop  offset="0" style="stop-color:#FFC8AA"/>
			<stop  offset="3.258800e-02" style="stop-color:#FF94D5;stop-opacity:0.97"/>
			<stop  offset="1" style="stop-color:#BFCAFF;stop-opacity:0"/>
		</linearGradient>
		<path fill="url(#SVGID_35_)" d="M50.8,31.5c-0.1,2.2-0.3,4.5-0.4,6.7"/>
	</g>
	<g>
		<linearGradient id="SVGID_36_" gradientUnits="userSpaceOnUse" x1="49.1561" y1="31.7143" x2="76.7915" y2="31.7143">
			<stop  offset="0" style="stop-color:#FF7F83"/>
			<stop  offset="0.3533" style="stop-color:#FF7D93;stop-opacity:0.6467"/>
			<stop  offset="1" style="stop-color:#FF7BAC;stop-opacity:0"/>
		</linearGradient>
		<linearGradient id="SVGID_37_" gradientUnits="userSpaceOnUse" x1="48.502" y1="31.6606" x2="77.5663" y2="31.6606">
			<stop  offset="0" style="stop-color:#FF7BAC"/>
			<stop  offset="1" style="stop-color:#FF7BAC;stop-opacity:0"/>
		</linearGradient>
		<path fill="url(#SVGID_36_)" stroke="url(#SVGID_37_)" stroke-miterlimit="10" d="M55.3,36.2c-1.1,3.1-2.8,6.5-5.1,10.1l-1-0.8
			c2.4-4,2.3-11,3.2-13.7L55.3,36.2z M55.1,31.6l-0.8,1.1c-1.8-1.7-3.5-3.2-5-4.4l1.3-3.5C52.1,25.9,53.3,29.9,55.1,31.6z
			 M55.8,23.9l-0.9,0.9c-1.2-1.4-2.8-2.8-4.7-4.4l1.2-2.3C53.2,19.5,54.4,22.4,55.8,23.9z M63.2,39.7c-1.8,2.7-4.4,4.7-7.6,6
			l-1.2-2.2c3.2-1.1,6.1-1.5,7.5-3.9h-5.8v-1.1h7.1V39.7z M76.8,32.7l-20.9-2.1v-1.1h9.2v-2.3h-7.5v-1.1h7.5v-2.1H57V23h17.6v1.1
			h-8.2v2.1h7.4v1.1h-7.4v2.3h9.2L76.8,32.7z M76,44.5l-0.8,1c-3.7-1.6-6.6-3.9-8.7-7V44c0,0.9-0.2,1.5-0.7,1.7
			c-0.4,0.2-1.4,0.3-2.7,0.3l-1.3,0l-0.5-2.3l3.1,1.1c0.6,0,0.9-0.3,0.9-1v-7.7h-7.6v-1.1h8.8v1.5c0.6,1,1.3,2,2,2.8
			c2.4-1.4,4.2-5.3,5.8-6.8l1,3.2c-1.5,1.3-3.4,2.8-5.9,4.5C71.2,42.1,73.4,43.5,76,44.5z M63.3,21.7l-0.9,0.8
			c-0.8-0.9-1.7-1.7-2.6-2.4l0.9-2.3C61.5,18.5,62.4,20.9,63.3,21.7z M70.6,33.2l-0.5,2.4c-2.8-0.7-6-2.5-9.6-2.9l0.4-1
			C64.3,32,67.6,32.5,70.6,33.2z M71.5,20.1c-0.9,0.9-1.9,1.7-2.9,2.4l-1-0.8c1.1-0.7,1.8-3.8,2.5-4.5L71.5,20.1z"/>
		<linearGradient id="SVGID_38_" gradientUnits="userSpaceOnUse" x1="79.0845" y1="32.76" x2="106.6077" y2="32.76">
			<stop  offset="0" style="stop-color:#FF7F83"/>
			<stop  offset="0.3533" style="stop-color:#FF7D93;stop-opacity:0.6467"/>
			<stop  offset="1" style="stop-color:#FF7BAC;stop-opacity:0"/>
		</linearGradient>
		<linearGradient id="SVGID_39_" gradientUnits="userSpaceOnUse" x1="77.84" y1="32.8153" x2="107.1077" y2="32.8153">
			<stop  offset="0" style="stop-color:#FF7BAC"/>
			<stop  offset="1" style="stop-color:#FF7BAC;stop-opacity:0"/>
		</linearGradient>
		<path fill="url(#SVGID_38_)" stroke="url(#SVGID_39_)" stroke-miterlimit="10" d="M92.6,23.9h-3.9V27h-1.2v-3.1H80l0.2-2.3
			l7.3,1.2L86,19.4l2.8,0v3.4h3.9V23.9z M89.7,28.1c-0.8,1.6-1.7,3-2.7,4.4l2.4,12.9l-3.6,0.8V34c-1.4,1.8-3.1,3.3-5.9,1.4l-0.8-1
			c4.7,0.7,7.5-2.6,9.4-6.7L89.7,28.1z M106.6,23.9h-7.4l3.3,4L98,27.3v-3.4h-4.1v-1.1H98v-3.4h1.2v3.4h7.4V23.9z M106.3,39.4
			c-0.2,2.8-0.5,4.6-0.9,5.1c-0.4,0.6-0.9,0.9-1.4,1c-0.5,0.1-2,0.1-4.4,0.1c-2.2,0-3.5,0-4-0.1c-0.5-0.1-0.9-0.3-1.2-0.6
			c-0.3-0.3-0.4-0.8-0.4-1.4V27.9h1.2v5.4l10.7-3.4l0.1,4.6H95.3v8.9c0,0.5,0.2,0.8,0.5,0.9c0.3,0.1,1.7,0.2,4.3,0.2
			c2.3,0,3.6-0.1,4-0.3c0.4-0.2-2.3-0.8-2.1-1.7c0.2-0.9,3.3-2.1,3.3-3.7L106.3,39.4z"/>
		<linearGradient id="SVGID_40_" gradientUnits="userSpaceOnUse" x1="116.9105" y1="37.9385" x2="118.5" y2="37.9385">
			<stop  offset="0" style="stop-color:#FF7F83"/>
			<stop  offset="0.3533" style="stop-color:#FF7D93;stop-opacity:0.6467"/>
			<stop  offset="1" style="stop-color:#FF7BAC;stop-opacity:0"/>
		</linearGradient>
		<linearGradient id="SVGID_41_" gradientUnits="userSpaceOnUse" x1="116.4105" y1="37.9385" x2="119" y2="37.9385">
			<stop  offset="0" style="stop-color:#FF7BAC"/>
			<stop  offset="1" style="stop-color:#FF7BAC;stop-opacity:0"/>
		</linearGradient>
		<path display="none" fill="url(#SVGID_40_)" stroke="url(#SVGID_41_)" stroke-miterlimit="10" d="M117.7,39.7
			c-0.2,0-0.4-0.1-0.6-0.2c-0.1-0.2-0.2-0.3-0.2-0.6c0-0.2,0.1-0.4,0.2-0.6c0.1-0.1,0.3-2.1,0.5-2.1c0.2,0,0.4,2,0.6,2.1
			c0.2,0.1,0.2,0.3,0.2,0.6c0,0.2-0.1,0.4-0.2,0.6S117.9,39.7,117.7,39.7z"/>
		<linearGradient id="SVGID_42_" gradientUnits="userSpaceOnUse" x1="125.5808" y1="36.8299" x2="144.0947" y2="36.8299">
			<stop  offset="0" style="stop-color:#FF7F83"/>
			<stop  offset="0.3533" style="stop-color:#FF7D93;stop-opacity:0.6467"/>
			<stop  offset="1" style="stop-color:#FF7BAC;stop-opacity:0"/>
		</linearGradient>
		<linearGradient id="SVGID_43_" gradientUnits="userSpaceOnUse" x1="124.8471" y1="36.5343" x2="144.7541" y2="36.5343">
			<stop  offset="0" style="stop-color:#FF7BAC"/>
			<stop  offset="1" style="stop-color:#FF7BAC;stop-opacity:0"/>
		</linearGradient>
		<path display="none" fill="url(#SVGID_42_)" stroke="url(#SVGID_43_)" stroke-miterlimit="10" d="M132.9,29.8
			c-0.4,0.9-1,1.9-1.7,2.9v7h-0.7v-5.9c-0.7,0.9-1.4,1.7-2.1,2.3l-2.9-2.7c1.8-1.7,5.7-1.6,6.7-3.9L132.9,29.8
			C132.9,29.7,133,29.8,132.9,29.8z M131.4,40.5c-0.6,1.5-1.5,2.9-2.7,4.3l-0.6-0.4c1.1-1.3,1.9-2.7,2.6-4.1L131.4,40.5z M143.2,31
			c-0.2,1.1-0.6,2.1-1,3.1l-1.8-0.8c0.4-0.8,1.8-1,1.9-1.6h-6.9c-0.8,1.2-1.6,2.2-2.5,3l-0.5-0.5c1.5-1.4,2.1-4.9,2.9-6.6l1.2,2.1
			c-0.1,0.2-0.3,0.7-0.7,1.3H143.2z M136.2,34.7c-0.8,1.4-1.8,2.7-3,3.9l-0.5-0.5c1.2-1.2,2.2-2.4,3-3.8L136.2,34.7z M140.3,42.8
			c-0.1,0.9-0.2,1.6-0.4,1.9s-0.7,1.2-1.1,1.3c-0.4,0.1-1.1-0.6-2.4-0.6c-1.6,0-2.6-0.1-2.9-0.3c-0.3-0.2-0.5-0.5-0.5-0.9v-4.3h0.7
			v4.3c0,0.2,0.1,0.4,0.3,0.4c0.2,0.1,1.1,0.1,2.7,0.1c1.3,0,2,0,2.3-0.1c0.2-0.1,0.4-0.3,0.5-0.8c0.1-0.4,0.1-0.9,0.1-1.3
			L140.3,42.8z M138.1,42.2l-0.6,0.4c-0.7-1.1-1.4-2.2-2.3-3.3l1.1-0.9C137.3,39.5,137.5,41.1,138.1,42.2z M139.5,39.7l-1.7-0.2V33
			h0.7L139.5,39.7z M144,38.1l-0.8,0.3c-0.9-1.4-1.9-2.6-3-3.7l0.5-0.5C141.9,35.5,143.2,36.8,144,38.1z M144.1,44.5l-0.6,0.4
			c-0.9-1.6-1.8-3-2.8-4.2l0.6-0.4C143,41.3,143.2,42.9,144.1,44.5z"/>
		<linearGradient id="SVGID_44_" gradientUnits="userSpaceOnUse" x1="147.1688" y1="37.4511" x2="161.9118" y2="37.4511">
			<stop  offset="0" style="stop-color:#FF7F83"/>
			<stop  offset="0.3533" style="stop-color:#FF7D93;stop-opacity:0.6467"/>
			<stop  offset="1" style="stop-color:#FF7BAC;stop-opacity:0"/>
		</linearGradient>
		<linearGradient id="SVGID_45_" gradientUnits="userSpaceOnUse" x1="146.6688" y1="37.4306" x2="162.4209" y2="37.4306">
			<stop  offset="0" style="stop-color:#FF7BAC"/>
			<stop  offset="1" style="stop-color:#FF7BAC;stop-opacity:0"/>
		</linearGradient>
		<path display="none" fill="url(#SVGID_44_)" stroke="url(#SVGID_45_)" stroke-miterlimit="10" d="M152.8,45.1h-0.7v-1.6h-4.2v1.9
			h-0.7V32.6h1.7c0.6-1.3-0.2-2.5,1.3-3.2l0.7,0.2c-0.3,0.9-0.7,1.9-1.2,3h3.2V45.1z M150.6,36.2l1.5-2.9h-4.2v4.2L150.6,36.2z
			 M152.1,42.9v-4.6h-4.2v4.6H152.1z M161.9,32.7c0,2.7-0.2,5.2-0.4,7.6s-0.4,3.8-0.5,4c-0.1,0.3-0.3,0.5-0.6,0.7
			c-0.3,0.2-1,0.3-2.2,0.3l-1.2,0l-0.2-0.7l1.1,0c1.1,0,1.7-0.1,2-0.2c0.2-0.1,0.4-0.4,0.5-0.8c0.1-0.4,0.3-1.6,0.4-3.6
			c0.2-2.1,0.3-4.3,0.3-6.8h-4.9c-0.6,1.3-1.3,2.5-2.2,3.7l-0.6-0.5c1.5-1.8,2.6-4.1,3.4-7l0.7,0.2c-0.3,1-0.6,2-1,2.9H161.9z
			 M158.6,40.8l-0.7,0.5c-0.6-1.4-1.5-2.8-2.6-4.2l1.6-1.5C157.9,36.6,157.7,39,158.6,40.8z"/>
		<linearGradient id="SVGID_46_" gradientUnits="userSpaceOnUse" x1="164.977" y1="37.6191" x2="180.8541" y2="37.6191">
			<stop  offset="0" style="stop-color:#FF7F83"/>
			<stop  offset="0.3533" style="stop-color:#FF7D93;stop-opacity:0.6467"/>
			<stop  offset="1" style="stop-color:#FF7BAC;stop-opacity:0"/>
		</linearGradient>
		<linearGradient id="SVGID_47_" gradientUnits="userSpaceOnUse" x1="164.477" y1="37.7172" x2="181.3541" y2="37.7172">
			<stop  offset="0" style="stop-color:#FF7BAC"/>
			<stop  offset="1" style="stop-color:#FF7BAC;stop-opacity:0"/>
		</linearGradient>
		<path display="none" fill="url(#SVGID_46_)" stroke="url(#SVGID_47_)" stroke-miterlimit="10" d="M180.9,42.1h-3.9v2
			c0,0.5-0.1,0.8-0.3,1.1s-0.6,0.3-1.3,0.3l-1.7,0l-0.2-0.7c0.6,0,1.1,0,1.7,0c0.5,0,0.8,0,0.9-0.1c0.1-0.1,0.2-0.2-0.7-0.5v-2.1
			H165v-0.6h11.2v-1h0.7v1h3.9V42.1z M180.6,31.5h-7.3v1.4h5.8v4.8h-1.1c0.9,0.8,2,0.1,2.6,1l-0.9,2c-0.3-0.4-0.6-0.8-0.9-1.1
			c-4.8,0.4-9.3,0.5-13.5,0.6l-0.2-0.7h0.5c1.8,0,4.1-0.1,6.8-0.2v-1.6h-5.8v-4.8h5.8v-1.4h-7.4l0-1.9l7.4,1.3v-0.5
			c0-0.4,0.3-0.7,0.7-0.7l0,0v1.2h7.3V31.5z M172.6,35v-1.5h-5.1V35H172.6z M172.6,37.1v-1.5h-5.1v1.5H172.6z M171.3,44.4l-0.7,1.3
			c-0.8-0.7-1.4-2-2.4-2.6l0.4-0.5C169.6,43.1,170.5,43.7,171.3,44.4z M178.4,35v-1.5h-5.1V35H178.4z M178.4,37.1v-1.5h-5.1v1.5
			H178.4z M178.4,39c-0.3-0.3-0.6-0.6-0.9-0.9l0.5-0.4h-4.6v1.6C175.1,39.3,176.8,39.2,178.4,39z"/>
		<linearGradient id="SVGID_48_" gradientUnits="userSpaceOnUse" x1="183.4547" y1="36.885" x2="200.3487" y2="36.885">
			<stop  offset="0" style="stop-color:#FF7F83"/>
			<stop  offset="0.3533" style="stop-color:#FF7D93;stop-opacity:0.6467"/>
			<stop  offset="1" style="stop-color:#FF7BAC;stop-opacity:0"/>
		</linearGradient>
		<linearGradient id="SVGID_49_" gradientUnits="userSpaceOnUse" x1="182.6411" y1="36.7661" x2="201.4625" y2="36.7661">
			<stop  offset="0" style="stop-color:#FF7BAC"/>
			<stop  offset="1" style="stop-color:#FF7BAC;stop-opacity:0"/>
		</linearGradient>
		<path display="none" fill="url(#SVGID_48_)" stroke="url(#SVGID_49_)" stroke-miterlimit="10" d="M199.2,40.9h-7.5v4.6l-1.8-0.1
			l1.1-4.5h-7.5v-0.7h7.5v-1.7h-6.8v-0.7h6.8v-1.6h-7.2v-0.7h5c-0.3-0.5-0.7-1.1-1.3-1.8l0.5-0.4h-4.5v-0.7h6v-3.1h0.7v3.1h2.3v-3.1
			h0.7v3.1h6v0.7h-4.6l0.6,0.4c-0.4,0.8-0.8,1.3-1.2,1.7h5v0.7h-7.2v1.6h6.8v0.7h-6.8v1.7h7.5V40.9z M189.3,42.2
			c-1.8,1.3-3.5,2.3-5.3,2.9l-0.5-0.6c1.9-0.7,3.6-1.6,5.3-2.8L189.3,42.2z M187.5,31.8l-0.6,0.4c-0.6-0.7-1.2-1.4-1.9-2l1.2-2
			C186.7,28.8,186.8,31,187.5,31.8z M194.4,33.4h-6.3c0.6,0.7,1.1,1.5,1.5,2.2h3.6C193.7,34.8,194.1,34.1,194.4,33.4z M200.3,44.7
			l-1.5,0.5c-1.7-1.1-3.6-2.1-5.5-3l0.4-0.6C195.8,42.6,198.7,43.6,200.3,44.7z M198.8,29.9c-0.6,0.8-2.3,1.7-3,2.3l-0.6-0.4
			c0.7-0.6,1.4-1.2,2-2L198.8,29.9z"/>
		<linearGradient id="SVGID_50_" gradientUnits="userSpaceOnUse" x1="201.7361" y1="36.8271" x2="217.7734" y2="36.8271">
			<stop  offset="0" style="stop-color:#FF7F83"/>
			<stop  offset="0.3533" style="stop-color:#FF7D93;stop-opacity:0.6467"/>
			<stop  offset="1" style="stop-color:#FF7BAC;stop-opacity:0"/>
		</linearGradient>
		<linearGradient id="SVGID_51_" gradientUnits="userSpaceOnUse" x1="201.0219" y1="36.7079" x2="218.5687" y2="36.7079">
			<stop  offset="0" style="stop-color:#FF7BAC"/>
			<stop  offset="1" style="stop-color:#FF7BAC;stop-opacity:0"/>
		</linearGradient>
		<path display="none" fill="url(#SVGID_50_)" stroke="url(#SVGID_51_)" stroke-miterlimit="10" d="M217.1,40.5h-7.5
			c-0.9,2.6-3.3,4.8-7.4,5.5l-0.5-1.2c3.9-0.7,6.3-2.1,7.2-4.3l-6.7,0.7l0-1.4h6.9c0.1-0.5,0.2-0.9,0.2-1.5l0.7,0
			c0,0.5-0.1,1-0.2,1.5h7.3V40.5z M217.6,37.7h-15.8V37h7.5v-2h-6v-0.7h6v-1.9h-6.8v-0.7h14.3l0,1.2l-6.8-0.5v1.9h6.1V35H210v2
			l7.8-1.4L217.6,37.7z M207.7,30.9l-0.5,0.5c-0.6-0.6-1.2-1.1-1.8-1.5l0.4-2.3C206.4,28.1,207.2,30.4,207.7,30.9z M217.8,44.7
			l-0.8,0.8c-1.5-1-3.7-2.1-6.6-3.2l0.4-0.6C213,42.5,215.6,43.4,217.8,44.7z M214.9,29.9c-0.6,0.6-2.5,1.2-3.2,1.6l-0.5-0.5
			c0.6-0.3,1.3-0.8,1.9-1.4L214.9,29.9z"/>
		<linearGradient id="SVGID_52_" gradientUnits="userSpaceOnUse" x1="220.1158" y1="37.5404" x2="237.099" y2="37.5404">
			<stop  offset="0" style="stop-color:#FF7F83"/>
			<stop  offset="0.3533" style="stop-color:#FF7D93;stop-opacity:0.6467"/>
			<stop  offset="1" style="stop-color:#FF7BAC;stop-opacity:0"/>
		</linearGradient>
		<linearGradient id="SVGID_53_" gradientUnits="userSpaceOnUse" x1="219.6158" y1="37.5525" x2="237.7975" y2="37.5525">
			<stop  offset="0" style="stop-color:#FF7BAC"/>
			<stop  offset="1" style="stop-color:#FF7BAC;stop-opacity:0"/>
		</linearGradient>
		<path display="none" fill="url(#SVGID_52_)" stroke="url(#SVGID_53_)" stroke-miterlimit="10" d="M225.8,45.5l-2-0.1l1.3-6.6h-2.5
			c0,2.7-0.6,4.8-1.7,6.4l-0.5-0.6c1-1.4,1.5-3.3,1.5-5.8h-1.7v-0.7h4.9v-2.8h-3.6l-0.5-5.8l1.2,0.4v4.7h2.9v-5.1h0.7V45.5z
			 M236,34.4h-1.5c-0.2,3.1-0.9,5.5-2.2,7.4c1.3,1,3.7,0.9,4.7,2l-1.7,1.8c-1.2-1.2-2.3-2.3-3.5-3.2c-1.1,1.3-2.7,2.3-4.8,3.1
			l-0.5-0.6c2-0.7,3.6-1.7,4.7-3c-1.2-0.9-2.4-1.7-3.6-2.4c0.6-1.7,1-3.4,1.4-5.1h-2.4v-0.7h2.5c0.2-1,0.4-2.4,0.7-4.2l0.8,0.1
			c-0.2,1.3-0.4,2.6-0.7,4.1h3.8l0-1.7h0.8l-0.1,1.7l1.6-1L236,34.4z M233.8,34.4h-3.9c-0.3,1.6-0.8,3.2-1.3,4.8
			c0.9,0.6,2,1.3,3.1,2.1C232.9,39.7,233.6,37.4,233.8,34.4z"/>
		<linearGradient id="SVGID_54_" gradientUnits="userSpaceOnUse" x1="238.3703" y1="37.5583" x2="255.4742" y2="37.5583">
			<stop  offset="0" style="stop-color:#FF7F83"/>
			<stop  offset="0.3533" style="stop-color:#FF7D93;stop-opacity:0.6467"/>
			<stop  offset="1" style="stop-color:#FF7BAC;stop-opacity:0"/>
		</linearGradient>
		<linearGradient id="SVGID_55_" gradientUnits="userSpaceOnUse" x1="237.7332" y1="37.5968" x2="256.5095" y2="37.5968">
			<stop  offset="0" style="stop-color:#FF7BAC"/>
			<stop  offset="1" style="stop-color:#FF7BAC;stop-opacity:0"/>
		</linearGradient>
		<path display="none" fill="url(#SVGID_54_)" stroke="url(#SVGID_55_)" stroke-miterlimit="10" d="M246.3,35.5h-6.1l0,1.3
			c0,4-0.4,6.8-1.1,8.4l-0.7-0.5c0.7-1.5,1.1-3.9,1.1-7.1v-7.1c2.2-0.2,4.3-0.5,6.4-1l0.4,0.6c-1.9,0.5-3.9,0.9-6,1.1v1.3l5.5-0.8
			L246.3,35.5z M245.6,34.9v-1.7h-5.4v1.7H245.6z M246.9,44.4h-4.6v1.1h-0.7v-6.3c-0.2,0.4-0.5,0.8-0.7,1.2l-0.5-0.4
			c0.9-1.5,1.5-2.8,1.8-3.9l0.7,0.2c-0.1,0.2-0.2,0.6-0.5,1.2h1.9c-0.1-0.3-0.3-0.7-0.6-1.1l0.7-0.2c0.2,0.4,0.5,0.9,0.7,1.3h1.8
			v0.6h-2.1v1.5h1.7v0.6h-1.7v1.5h1.7v0.6h-1.7v1.5h2.1V44.4z M244.1,39.6v-1.5h-1.8v1.5H244.1z M244.1,41.6v-1.5h-1.8v1.5H244.1z
			 M244.1,43.8v-1.5h-1.8v1.5H244.1z M254.4,30.9h-3.2c-0.2,0.9-0.4,1.7-0.7,2.3l3.7-1.1l-0.8,9.8h-3.5l0.5,0.4
			c-0.9,1.3-1.9,2.4-3.1,3.3l-0.5-0.5c1.3-1,2.2-2.1,3-3.2h-1.8v-8.7h1.8c0.3-0.7,0.5-1.5,0.7-2.3h-3.4v-0.7h7.3V30.9z M252.6,35.8
			v-2h-4v2H252.6z M248.6,36.5v2h4 M252.6,41.2v-2.1h-4v2.1H252.6z M255.5,45.4l-1.6,0c-0.4-0.6-1.2-1.4-2.3-2.6l0.5-0.5
			C253,43.3,254.8,44.6,255.5,45.4z"/>
		<linearGradient id="SVGID_56_" gradientUnits="userSpaceOnUse" x1="257.7055" y1="37.948" x2="273.8494" y2="37.948">
			<stop  offset="0" style="stop-color:#FF7F83"/>
			<stop  offset="0.3533" style="stop-color:#FF7D93;stop-opacity:0.6467"/>
			<stop  offset="1" style="stop-color:#FF7BAC;stop-opacity:0"/>
		</linearGradient>
		<linearGradient id="SVGID_57_" gradientUnits="userSpaceOnUse" x1="257.2055" y1="37.948" x2="274.3494" y2="37.948">
			<stop  offset="0" style="stop-color:#FF7BAC"/>
			<stop  offset="1" style="stop-color:#FF7BAC;stop-opacity:0"/>
		</linearGradient>
		<path display="none" fill="url(#SVGID_56_)" stroke="url(#SVGID_57_)" stroke-miterlimit="10" d="M263.8,36.2h-5.3l2.1,9.1
			l-2.8,0.1V30.1h6V36.2z M263,32.9v-2.1h-4.6v2.1H263z M263,33.5h-4.6v2 M268.2,42.8h-6.7v-4.8l7-0.6L268.2,42.8z M267.4,42.2v-3.4
			h-5.2v3.4H267.4z M273.8,45.4c0,0.8-2.3,0.1-3.1,0.1l-1.5,0l-0.3-0.6c0.5,0,0.9,0,1.3,0c0.4,0,0.7,0,0.8-0.1
			c0.1-0.1,0.2-0.2,0.2-0.4v-8.2h-5.3v-6.1h6.1L273.8,45.4z M271.2,32.9v-2.1h-4.6v2.1H271.2z M271.2,35.6v-2h-4.6"/>
	</g>
	<g>
		<path fill="#F48CB1" d="M115.9,35.9L115.9,35.9l-0.1,0.2c-0.1,0-0.2,0.1-0.2,0.1c0,0.1-0.1,0.1-0.2,0.1c0,0.1,0,0.1-0.1,0.1
			l-0.3,0.2l-0.1,0.2h-0.1c-0.1,0.1-0.1,0.2-0.2,0.2c-0.1,0-0.2,0.1-0.2,0.1l-0.2,0.3l-0.2,0.1c-0.1,0-0.1,0.1-0.2,0.1l-0.1,0.2
			l-0.1,0.1c0,0-0.1,0.1-0.2,0.2l-0.1,0.3L113,39c-0.1,0.2-0.2,0.3-0.2,0.4l0.1,0.1l-0.1,0.2l0.1,0.2l-0.1,0.2l0,0.3l0.1,0.1
			c-0.1,0.1-0.1,0.2-0.1,0.3c0,0.1,0,0.2,0,0.2c0,0.2,0,0.3,0,0.3l-0.1,0.5l0,0.2l0,0.1l0.1,0.4l-0.1,0.2l0.1,0.2l-0.1,0.1
			c0.1,0.1,0.1,0.2,0.1,0.3c-0.1,0.2-0.1,0.2-0.1,0.3l0.1,0.3l-0.1,0.3l0.1,0.2l0,0.4c0,0.1-0.1,0.2-0.1,0.2l-0.1-0.4l-0.1-0.3
			l0-0.3l-0.1,0l0.1-0.1l-0.1-0.2l0.1-0.3l-0.1-0.3l0-0.3l0-0.1l0-0.2l0-0.5l0-0.2l0-0.3l0.1-0.5l-0.1-0.2l0-0.2
			c0-0.2,0-0.3-0.1-0.4c0.1-0.1,0.1-0.2,0.1-0.3c0-0.1-0.1-0.3-0.2-0.6c-0.1-0.1-0.2-0.2-0.2-0.3c-0.1,0-0.1,0-0.1-0.1l-0.3-0.4
			l-0.2-0.1l-0.1-0.3l-0.4-0.4l-0.1-0.1l-0.2-0.3l-0.3-0.2V37l-0.1-0.1c-0.1,0-0.1-0.1-0.1-0.1l-0.1-0.2c0,0-0.1-0.1-0.2-0.1
			c-0.2-0.1-0.3-0.3-0.3-0.5l0-0.1h0.1c0,0,0-0.1,0.1-0.1c0.1,0,0.2,0,0.3,0.1l0.1,0.2l0.2,0.1l0.2,0.3l0.2,0.2l0,0.2
			c0,0.1,0.1,0.1,0.2,0.1l0.1,0.2l0.2,0.1l0.5,0.8l0,0.1l0.1,0l0.1,0.2l0.5,0.5c0,0,0.1,0.1,0.1,0.1c0,0.1,0.1,0.1,0.1,0.1
			c0,0,0,0,0.1-0.1c0.1-0.1,0.1-0.2,0.2-0.3c0-0.1,0-0.2,0.1-0.2h0.1c0,0,0,0,0-0.1v0c0,0,0-0.1,0.1-0.2l0,0c0-0.1,0.1-0.1,0.2-0.2
			l0.1-0.1v0c0-0.1,0.1-0.1,0.2-0.1c0.1,0,0.1-0.1,0.1-0.1c0,0,0,0,0-0.1c0.1,0,0.2-0.1,0.2-0.1l0.2-0.2c0.1-0.1,0.1-0.2,0.2-0.3
			c0.1-0.1,0.1-0.1,0.2-0.1h0l0.1-0.1c0,0,0.1-0.1,0.2-0.2l0-0.2c0,0,0.1,0,0.1,0c0.1,0,0.1-0.1,0.1-0.2v0c0,0,0.1-0.1,0.2-0.1
			l0-0.1l0.1-0.1h0.1l0.1-0.2l0.3,0l0.1,0L115.9,35.9L115.9,35.9z"/>
		<path fill="#F48CB1" d="M119.8,39l-0.1,0.2l0,0.1l0,0.2c0,0,0,0.1-0.1,0.2v0.1l-0.1,0.2l-0.1,0.1c0,0-0.1,0.1-0.1,0.3l-0.1,0
			l0,0.1l-0.1,0.1l-0.1,0.2l-0.2,0.1l0,0.1l-0.1,0.1c-0.1,0.1-0.1,0.1-0.1,0.2c0,0-0.1,0-0.1,0.1c-0.1,0-0.1,0-0.1,0.1
			c0,0.1-0.1,0.2-0.3,0.2c0,0.1-0.1,0.1-0.1,0.1c0,0,0,0-0.1,0c-0.1,0.1-0.2,0.1-0.3,0.2l-0.1,0.1l-0.1-0.1l0,0.1l-0.2-0.1l-0.4,0
			c-0.1-0.1-0.2-0.2-0.3-0.4l0-0.1l-0.1-0.4l0.1-0.1l-0.1-0.3l0.1-0.2c0,0,0-0.1,0-0.1c0-0.1,0-0.1,0-0.1c0-0.1,0-0.1,0.1-0.2v-0.1
			c0-0.1,0-0.2,0.1-0.2h0.1c0.1-0.1,0.1-0.1,0.1-0.2l0-0.1l0-0.2v-0.1c0.1-0.1,0.1-0.2,0.1-0.2l0-0.2c0-0.1,0-0.1,0-0.1
			c0.1-0.1,0.2-0.1,0.2-0.2c0,0,0-0.1,0-0.1l0.1-0.2c0,0,0,0,0.1-0.1c0,0,0,0,0.1,0l0-0.1c0.1,0,0.2-0.1,0.2-0.2c0-0.1,0-0.1,0-0.2
			c0.2,0,0.4-0.1,0.5-0.4h0.1c0,0,0.1-0.1,0.1-0.1c0,0,0,0,0.1,0c0.1,0,0.1,0,0.2,0l0.2-0.1v0.1c0.1,0,0.2,0,0.3,0.1h0.1
			c0,0.1,0.1,0.1,0.1,0.1l0,0c0.1,0.1,0.2,0.2,0.2,0.3l0.1,0.1l0.1,0l0.2,0.2l0.2,0.5v0.1L119.8,39z M119.5,39.3
			c0-0.1,0.1-0.1,0.1-0.1c0,0,0,0,0-0.1s0,0,0,0h0.1c0,0,0-0.1-0.1-0.1l0,0l-0.1-0.2l0-0.2l-0.1-0.2c-0.1,0-0.1-0.1-0.1-0.1v0
			c0,0,0,0,0-0.1c0,0,0,0,0,0v0c0,0,0-0.1,0-0.1l-0.1-0.1l-0.1,0l0-0.1l0-0.1l-0.1-0.1l-0.1-0.1l-0.3-0.1l-0.1,0
			c-0.2,0-0.3,0.1-0.3,0.2l0,0.3l-0.2,0l-0.3,0.2l0,0.1l-0.1,0.1l-0.1,0.3l-0.1,0.1c0,0,0,0.1,0,0.1c0,0.1,0,0.1,0,0.2l-0.1,0.1
			c0,0,0,0.1,0,0.2c0,0.1,0,0.1-0.1,0.2v0.1l-0.1,0.1v0.1l0,0.1l0,0.1l-0.1,0.3l0,0.1v0.2l0,0.2l0,0.3l0.2,0.2c0,0,0.1,0.1,0.2,0.1
			l0,0.1l0.1,0l0.1,0l0.1-0.1l0.3,0l0.1,0l0-0.1l0.1,0c0.1,0,0.2,0,0.2-0.1l0.1,0l0-0.1l0.1,0l0.1-0.1c0.1-0.1,0.1-0.1,0.1-0.1h0.2
			l0.1-0.1l0.2-0.2l0.1-0.1c0,0,0.1-0.1,0.1-0.1l0.1-0.1c0-0.1,0-0.2,0.1-0.3l0-0.1l0.1-0.1l0-0.1c0-0.1,0.1-0.1,0.1-0.1h-0.1
			c0,0,0-0.1,0-0.1c0,0,0,0,0-0.1s0-0.1,0-0.1c0,0,0-0.1,0-0.1C119.5,39.4,119.5,39.4,119.5,39.3C119.5,39.3,119.5,39.3,119.5,39.3z
			"/>
		<path fill="#F48CB1" d="M125.7,41c0,0,0.1,0,0.2,0c0.1,0,0.1,0,0.1,0.1c0,0,0,0.1-0.1,0.2l-0.1,0l-0.1,0.1c0,0-0.1,0.1-0.2,0.1
			l-0.2,0.1c0,0-0.2,0.1-0.3,0.1c0,0-0.1,0-0.2,0c-0.1,0-0.1-0.1-0.2-0.1l-0.3-0.3l-0.1-0.3l-0.1-0.1v-0.1c0-0.1,0-0.2-0.1-0.3
			l0-0.3c0-0.1,0-0.2,0-0.2c0-0.1,0-0.2-0.1-0.2l0-0.5l-0.1,0.1l-0.1,0.1l-0.1,0.1c0,0-0.1,0.1-0.1,0.1l-0.1,0
			c-0.1,0.1-0.1,0.1-0.1,0.2c-0.1,0-0.2,0.1-0.2,0.2s-0.1,0.2-0.2,0.2c-0.1,0.1-0.1,0.1-0.2,0.1s-0.1,0-0.1,0.1l-0.3,0.4h0l-0.2,0.3
			l-0.2,0.1l-0.1,0.1c-0.1,0-0.3,0.1-0.4,0.2l-0.2-0.1c0,0,0,0-0.1,0c0,0-0.1,0-0.1-0.1c0,0,0,0,0-0.1l-0.1-0.1c0,0,0-0.1,0-0.1
			l-0.1-0.1l0.1-0.1h-0.1l-0.1-0.2l0.1-0.1l-0.1-0.1c0-0.2,0-0.3,0-0.3l0-0.2c0-0.1,0-0.1,0.1-0.2l-0.1-0.1c0.1-0.1,0.1-0.1,0.1-0.2
			c0,0,0-0.1-0.1-0.2c0,0,0.1-0.1,0.1-0.2c0,0,0-0.1,0-0.1l0-0.3l0.1-0.7c0-0.1,0-0.3-0.1-0.4l0-0.2c0-0.1,0.1-0.2,0.2-0.2l0.2,0
			l0.1,0.1l0,0.2l0,0.5l0,0.3l-0.1,0.2l0,0.1l0,0.2V39c0,0,0,0,0,0.1c0,0,0,0.1,0,0.1c0,0,0,0.1,0,0.1l0.1,0.1l-0.1,0.1l0.1,0.1
			l0,0.1l0,0.2v0.2l0.1,0.1l-0.1,0.3c0,0,0,0.1,0.1,0.2l0,0.1l0.1,0.1c0.1,0,0.1,0.1,0.2,0.2c0.1,0,0.1,0,0.2-0.1
			c0.1-0.1,0.1-0.1,0.2-0.2c0,0,0,0,0,0c0.1-0.1,0.2-0.1,0.2-0.2c0.1,0,0.1,0,0.2,0l0-0.1l0.1,0c0.1-0.1,0.2-0.2,0.3-0.2l0-0.1
			l0.2-0.2c0-0.1,0.1-0.2,0.2-0.2l0-0.1l0.1,0l0.1-0.2h0.1v-0.1l0.1-0.1l0.1-0.1c0.1,0,0.2-0.1,0.3-0.1l0-0.1l0.1,0v-0.1l0,0
			c0-0.2,0.1-0.3,0.2-0.3l0,0l0.2-0.6h0v-0.1h0c0,0,0.1-0.1,0.2-0.4l0.2,0l0,0l0.1,0.2L125,38l-0.2,0.2l-0.1,0.4l-0.1,0.1v0.2
			l-0.1,0.1l0,0.2l-0.1,0.1l0,0.5l0,0.6l0,0.1l0,0.1h0v0.2c0.1,0.2,0.2,0.3,0.2,0.3l0.1,0l0,0.1c0.1,0,0.2,0.1,0.3,0.1l0.1,0l0.1,0
			l0.2-0.1C125.6,41.1,125.6,41.1,125.7,41z"/>
		<path fill="#F48CB1" d="M130.4,37.4l0,0.1l-0.3,0l-0.2,0.1l-0.1,0l-0.2,0.1l-0.2,0.1c-0.1,0.1-0.1,0.1-0.2,0.1v0.1l-0.2,0.1
			l-0.1,0.2h-0.1l-0.1,0.2l-0.1,0.1c0,0-0.1,0.1-0.1,0.1l-0.1,0.2c-0.1,0-0.1,0.1-0.1,0.3l-0.1,0l0,0.1l-0.1,0.1l-0.1,0.2
			c-0.1,0.1-0.1,0.2-0.1,0.2l-0.1,0v0.2c0,0,0,0.1-0.1,0.1l0,0l-0.1,0l0,0.1c0,0.1-0.1,0.2-0.2,0.4l0.1,0.1l-0.1,0.2
			c0,0.1,0,0.1,0,0.2l0,0.2l0,0.2c0,0,0,0,0,0.1l0.1,0.1c0,0.1-0.1,0.1-0.1,0.2l-0.1-0.1l0,0.1l-0.2,0v-0.1l0-0.1l0-0.2l0-0.1l0-0.4
			l0-0.2c0,0-0.1,0-0.1-0.1c0,0,0-0.1,0.1-0.1v-0.2c0-0.1,0-0.1,0-0.2l0-0.1l0-0.2l0-0.2l0-0.1l0-0.3l-0.1-0.1l0-0.1l-0.1-0.2l0-0.2
			c0,0,0-0.1,0-0.2l0-0.1l-0.1-0.4l-0.1-0.1l0.1-0.2c-0.1-0.1-0.1-0.2-0.1-0.3v-0.1c0,0-0.1-0.1-0.1-0.1c0-0.1,0.1-0.1,0.3-0.2
			l0.1,0c0,0.1,0.1,0.2,0.1,0.2l0,0.3l0.1,0.8c0,0.1,0,0.1-0.1,0.1l0.1,0.2l0,0.2l0,0.2l0,0.1l0.1,0.2l0,0l0,0.2l0.1,0l0-0.2
			c0,0,0-0.1,0.1-0.2c0.1-0.1,0.1-0.2,0.1-0.3v-0.1l0.1,0c0,0,0,0,0,0s0,0,0,0h0l0.1-0.2l0.2-0.1l0-0.1h0.1l0-0.1l0.2-0.1l0-0.1
			l0.1,0c0.1-0.1,0.1-0.1,0.2-0.2l0.1,0c0,0,0.1-0.1,0.2-0.2c0,0,0,0,0.1,0l0.2-0.1l0-0.1l0.1-0.1c0.2-0.1,0.3-0.2,0.4-0.2h0
			c0.1,0,0.1,0,0.1-0.1l0.1,0c0,0,0.1-0.1,0.1-0.1C130.3,37.4,130.4,37.4,130.4,37.4z"/>
		<path fill="#F48CB1" d="M137,40.4l-0.1,0.1l0.1,0c0,0.1-0.1,0.1-0.1,0.2l0,0.1l-0.1,0l0,0.1c0,0-0.1,0.1-0.2,0.1l-0.1,0
			c0,0-0.1,0.1-0.3,0.1l-0.1,0l0,0.1l-0.2-0.1c0,0-0.1,0-0.1,0.1l0,0l-0.3,0l-0.2,0l-0.1-0.1l-0.2,0l-0.1-0.1
			c-0.1,0-0.1,0.1-0.2,0.1c0,0-0.1,0-0.2-0.1c0,0-0.1,0.1-0.1,0.1c0,0,0,0,0,0.1c0,0.1,0,0.1,0,0.1c0,0,0,0.1-0.1,0.2l0,0.1
			l-0.1,0.1c0,0.1,0,0.3,0,0.4l0,0.3l0,0.4l-0.1,0.1l0.1,0.2l-0.1,0.2l0.1,0v0.1c-0.1,0-0.1,0-0.1,0.1c0,0,0,0,0,0.1l0,0
			c-0.1,0.1-0.1,0.2-0.1,0.2l0,0.8c0,0.1,0,0.2-0.1,0.2c0,0-0.1,0-0.1,0l0-0.2l-0.1-0.4l0.1-0.2l0-0.3l-0.1-0.4
			c0.1,0,0.1-0.1,0.1-0.1c0,0,0-0.1-0.1-0.2l0.1-0.1l-0.1-0.2l0.1-0.2l0-0.2l0.1-0.1c-0.1,0-0.1-0.1-0.1-0.2c0,0,0-0.2,0.1-0.4
			l-0.1-0.1l0-0.2l0,0l0-0.1l0-0.4l0.1-0.5l-0.1-0.1l0.1-0.1l-0.1,0l-0.1-0.1l-0.1,0l0.1,0l0,0l0-0.1l0,0l0.1,0l0-0.1l0,0V40
			c-0.1,0-0.1,0-0.1-0.1c0,0,0-0.1,0-0.1l0-0.1c0,0-0.1,0-0.1-0.1c0,0,0,0,0.1,0h0v0h0.1l-0.1-0.1l0-0.1v-0.1l0-0.1l0-0.2l0-0.2
			l0-0.1l0-0.2l0-0.1l0-0.2l0-0.1l0-0.2c0,0-0.1-0.1-0.1-0.2h-0.1l-0.1-0.1l-0.2,0.1v0l-0.1,0h-0.1l0,0.1l-0.1,0l-0.1,0.1l-0.1,0
			l-0.1,0.2l-0.1-0.1l0,0.1c-0.1-0.1-0.2-0.2-0.2-0.2c0,0,0,0,0.1-0.1s0.1,0,0.1-0.1c0,0,0-0.1,0-0.1c0.1-0.1,0.2-0.1,0.4-0.1l0,0
			l0.1-0.1c0,0,0.1-0.1,0.3-0.1l0,0l0.1-0.1l0.2,0l0.2-0.1l0,0l0-0.2h0.1c0.1,0.1,0.1,0.2,0.3,0.3l0-0.1l0.1,0.1l0.1,0
			c0.1,0,0.2,0,0.3,0.1s0.2,0.1,0.2,0.1s0.1,0,0.2,0.1l0.1,0l0,0.1l0.1,0.1l0,0l0.1,0l0.1,0.1c0,0,0.1,0.1,0.1,0.1l0.2,0.1l0,0.1
			l0.1,0v0c0.1,0,0.1,0.1,0.1,0.2l0.1,0.1l0.1,0.2h0.1v0.1l0.1,0.1c0,0,0,0.1,0.1,0.2l0.1,0c0,0.1,0.1,0.2,0.1,0.3v0.1l0.1,0.1
			l0,0.1c0,0,0,0,0.1,0.1c0,0.1,0.1,0.2,0.1,0.2l-0.1,0l0,0.1V40l0.1,0l-0.1,0.2L137,40.4z M136.7,40.1L136.7,40.1v-0.1l-0.1-0.2
			l0-0.1l-0.1-0.1l0-0.1l-0.1-0.2l0-0.1l-0.2-0.3l-0.1-0.1l-0.1-0.2l-0.1-0.1l-0.1-0.2v0l-0.1,0l-0.1,0l-0.1-0.2l-0.1,0l-0.1-0.1
			l-0.2,0h-0.1l0,0l-0.1,0l-0.1-0.1l-0.1,0l0-0.1l-0.1,0l-0.3-0.1c-0.1,0-0.1,0.1-0.1,0.1c0,0,0,0,0,0.1c0,0,0,0.1,0,0.2l0,0.2
			l0.1,0.2l0.1,0.1l-0.1,0.2l0,0.2l-0.1,0.4l0,0.1l-0.1,0.1l0.1,0.1l-0.1,0l0,0.1l0.1,0.1l-0.1,0.1l0.1,0.1l-0.1,0.1l0,0.2l0,0.2
			l0.1,0.2l0.4,0l0,0.1c0-0.1,0.1-0.1,0.1-0.1s0,0,0.1,0.1c0,0,0,0,0.1,0c0,0,0.1,0,0.1,0c0,0,0.1,0,0.2,0c0,0,0-0.1,0.1-0.1
			c0,0,0,0,0,0h0.2l0.1,0l0.2-0.1l0,0c0.2,0,0.4-0.1,0.5-0.1h0c0.1,0,0.1,0,0.1-0.1l0.1,0l0-0.1l0.1,0l0-0.1l0-0.1l0.1-0.1
			L136.7,40.1L136.7,40.1z"/>
		<path fill="#F48CB1" d="M141.7,37.4l0,0.1l-0.3,0l-0.2,0.1l-0.1,0l-0.2,0.1l-0.2,0.1c-0.1,0.1-0.1,0.1-0.2,0.1v0.1l-0.2,0.1
			l-0.1,0.2h-0.1l-0.1,0.2l-0.1,0.1c0,0-0.1,0.1-0.1,0.1l-0.1,0.2c-0.1,0-0.1,0.1-0.1,0.3l-0.1,0l0,0.1l-0.1,0.1l-0.1,0.2
			c-0.1,0.1-0.1,0.2-0.1,0.2l-0.1,0v0.2c0,0,0,0.1-0.1,0.1l0,0l-0.1,0l0,0.1c0,0.1-0.1,0.2-0.2,0.4l0.1,0.1l-0.1,0.2
			c0,0.1,0,0.1,0,0.2l0,0.2l0,0.2c0,0,0,0,0,0.1l0.1,0.1c0,0.1-0.1,0.1-0.1,0.2l-0.1-0.1l0,0.1l-0.2,0v-0.1l0-0.1l0-0.2l0-0.1l0-0.4
			l0-0.2c0,0-0.1,0-0.1-0.1c0,0,0-0.1,0.1-0.1v-0.2c0-0.1,0-0.1,0-0.2l0-0.1l0-0.2l0-0.2l0-0.1l0-0.3l-0.1-0.1l0-0.1l-0.1-0.2l0-0.2
			c0,0,0-0.1,0-0.2l0-0.1l-0.1-0.4l-0.1-0.1l0.1-0.2c-0.1-0.1-0.1-0.2-0.1-0.3v-0.1c0,0-0.1-0.1-0.1-0.1c0-0.1,0.1-0.1,0.3-0.2
			l0.1,0c0,0.1,0.1,0.2,0.1,0.2l0,0.3l0.1,0.8c0,0.1,0,0.1-0.1,0.1l0.1,0.2l0,0.2l0,0.2l0,0.1l0.1,0.2l0,0l0,0.2l0.1,0l0-0.2
			c0,0,0-0.1,0.1-0.2c0.1-0.1,0.1-0.2,0.1-0.3v-0.1l0.1,0c0,0,0,0,0,0s0,0,0,0h0l0.1-0.2l0.2-0.1l0-0.1h0.1l0-0.1l0.2-0.1l0-0.1
			l0.1,0c0.1-0.1,0.1-0.1,0.2-0.2l0.1,0c0,0,0.1-0.1,0.2-0.2c0,0,0,0,0.1,0l0.2-0.1l0-0.1l0.1-0.1c0.2-0.1,0.3-0.2,0.4-0.2h0
			c0.1,0,0.1,0,0.1-0.1l0.1,0c0,0,0.1-0.1,0.1-0.1C141.7,37.4,141.7,37.4,141.7,37.4z"/>
		<path fill="#F48CB1" d="M145.4,39l-0.1,0.2l0,0.1l0,0.2c0,0,0,0.1-0.1,0.2v0.1l-0.1,0.2l-0.1,0.1c0,0-0.1,0.1-0.1,0.3l-0.1,0
			l0,0.1l-0.1,0.1l-0.1,0.2l-0.2,0.1l0,0.1l-0.1,0.1c-0.1,0.1-0.1,0.1-0.1,0.2c0,0-0.1,0-0.1,0.1c-0.1,0-0.1,0-0.1,0.1
			c0,0.1-0.1,0.2-0.3,0.2c0,0.1-0.1,0.1-0.1,0.1c0,0,0,0-0.1,0c-0.1,0.1-0.2,0.1-0.3,0.2l-0.1,0.1l-0.1-0.1l0,0.1l-0.2-0.1l-0.4,0
			c-0.1-0.1-0.2-0.2-0.3-0.4l0-0.1l-0.1-0.4l0.1-0.1l-0.1-0.3l0.1-0.2c0,0,0-0.1,0-0.1c0-0.1,0-0.1,0-0.1c0-0.1,0-0.1,0.1-0.2v-0.1
			c0-0.1,0-0.2,0.1-0.2h0.1c0.1-0.1,0.1-0.1,0.1-0.2l0-0.1l0-0.2v-0.1c0.1-0.1,0.1-0.2,0.1-0.2l0-0.2c0-0.1,0-0.1,0-0.1
			c0.1-0.1,0.2-0.1,0.2-0.2c0,0,0-0.1,0-0.1l0.1-0.2c0,0,0,0,0.1-0.1c0,0,0,0,0.1,0l0-0.1c0.1,0,0.2-0.1,0.2-0.2c0-0.1,0-0.1,0-0.2
			c0.2,0,0.4-0.1,0.5-0.4h0.1c0,0,0.1-0.1,0.1-0.1c0,0,0,0,0.1,0c0.1,0,0.1,0,0.2,0l0.2-0.1v0.1c0.1,0,0.2,0,0.3,0.1h0.1
			c0,0.1,0.1,0.1,0.1,0.1l0,0c0.1,0.1,0.2,0.2,0.2,0.3l0.1,0.1l0.1,0l0.2,0.2l0.2,0.5v0.1L145.4,39z M145,39.3
			c0-0.1,0.1-0.1,0.1-0.1c0,0,0,0,0-0.1s0,0,0,0h0.1c0,0,0-0.1-0.1-0.1l0,0l-0.1-0.2l0-0.2l-0.1-0.2c-0.1,0-0.1-0.1-0.1-0.1v0
			c0,0,0,0,0-0.1c0,0,0,0,0,0v0c0,0,0-0.1,0-0.1l-0.1-0.1l-0.1,0l0-0.1l0-0.1l-0.1-0.1l-0.1-0.1l-0.3-0.1l-0.1,0
			c-0.2,0-0.3,0.1-0.3,0.2l0,0.3l-0.2,0l-0.3,0.2l0,0.1l-0.1,0.1l-0.1,0.3l-0.1,0.1c0,0,0,0.1,0,0.1c0,0.1,0,0.1,0,0.2l-0.1,0.1
			c0,0,0,0.1,0,0.2c0,0.1,0,0.1-0.1,0.2v0.1l-0.1,0.1v0.1l0,0.1l0,0.1l-0.1,0.3l0,0.1v0.2l0,0.2l0,0.3l0.2,0.2c0,0,0.1,0.1,0.2,0.1
			l0,0.1l0.1,0l0.1,0l0.1-0.1l0.3,0l0.1,0l0-0.1l0.1,0c0.1,0,0.2,0,0.2-0.1l0.1,0l0-0.1l0.1,0l0.1-0.1C144,41.1,144,41,144,41h0.2
			l0.1-0.1l0.2-0.2l0.1-0.1c0,0,0.1-0.1,0.1-0.1l0.1-0.1c0-0.1,0-0.2,0.1-0.3l0-0.1l0.1-0.1l0-0.1c0-0.1,0.1-0.1,0.1-0.1H145
			c0,0,0-0.1,0-0.1c0,0,0,0,0-0.1s0-0.1,0-0.1c0,0,0-0.1,0-0.1C145,39.4,145.1,39.4,145,39.3C145.1,39.3,145,39.3,145,39.3z"/>
		<path fill="#F48CB1" d="M150.7,35.1c0,0,0,0.1-0.1,0.1l0,0l-0.1,0.1l-0.1-0.2c-0.1-0.2-0.1-0.3-0.2-0.4c0-0.1-0.1-0.1-0.1-0.1
			l-0.1,0.1c-0.1-0.1-0.2-0.1-0.3-0.1l-0.1,0.1c-0.1,0-0.1,0-0.2,0l-0.3,0c0,0,0,0.1,0,0.1c0,0,0,0,0,0c0,0,0,0,0,0s0,0,0,0
			c-0.1,0-0.2,0.2-0.4,0.6c0,0.2-0.1,0.3-0.1,0.4l-0.1,0c0,0.1-0.1,0.3-0.1,0.4l0.1,0.2l-0.1,0.1c0,0.2-0.1,0.3-0.1,0.4l0,0.2
			l-0.1,0.4l0,0.2c0,0,0,0.1-0.1,0.2c0,0-0.1,0.1-0.1,0.2c0,0.1,0.1,0.2,0.2,0.2h0.1c0.1,0,0.1-0.1,0.2-0.1h0c0,0,0.1,0,0.2,0
			c0,0,0,0,0.1,0s0.1,0,0.2,0h0.1c0.1,0,0.1,0,0.1,0c0,0,0.1,0,0.2,0.1l0.2-0.1c0,0,0,0,0.1,0c0,0,0.1,0,0.1,0c0.1,0,0.1,0,0.1,0
			c0,0.1,0.1,0.1,0.1,0.1c0.1,0,0.1-0.1,0.1-0.1c0,0,0,0,0,0.1c0,0,0,0.1,0,0.1l-0.3,0.1l-0.3-0.1c0,0-0.1,0.1-0.3,0.1
			c-0.1-0.1-0.1-0.1-0.1-0.1c0,0-0.1,0-0.2,0.1c0,0-0.1,0-0.2,0l0,0.1l-0.2,0.1l-0.1-0.1l-0.1,0h-0.1c0,0-0.1,0-0.1,0.1
			c0,0-0.1,0.1-0.1,0.1l-0.1,0.1l0,0.1l0,0.2l0,0.2l-0.1,0.3l0,0.4l-0.1,0.2l0,0.1l-0.1,0.3l0.1,0.2v0c0,0,0,0.1,0,0.1
			c0,0.1,0,0.2,0,0.3l0,0.3c0,0.1,0,0.2,0.1,0.2l0,0.1l0.1,0.2l0,0.2l0.1,0.6l0,0.6l0.2,0.2l-0.1,0.1l0,0.2c0.1,0.1,0.1,0.2,0.1,0.3
			v0.1c0,0.1,0,0.1,0,0.2c0,0.1,0,0.1-0.1,0.1l-0.1-0.1l-0.1-0.1l0-0.1l-0.2-0.6v-0.2l-0.1-0.1l0.1-0.1l-0.1-0.2l0-0.2
			c0,0,0,0,0-0.1c0,0,0-0.1,0-0.2c0-0.1,0-0.1,0-0.1l-0.1-0.5l0,0l-0.1-0.3l0-0.2l-0.1-0.1l0-0.1l0-0.6l0-0.1v-0.4l0-0.1l0-0.4
			l0-0.1l0.1-0.7c0,0,0-0.1,0-0.1c0-0.1,0-0.1,0-0.1c0,0,0-0.1-0.1-0.2l-0.2,0.1l-0.2-0.1l-0.1,0.1l-0.1-0.1l0,0l-0.2,0l-0.2,0
			l-0.3,0.1l-0.2,0l0,0c-0.1,0-0.2-0.1-0.2-0.1c0,0-0.1-0.1-0.1-0.2l0.1-0.2c0,0,0-0.1,0.1-0.1c0,0,0.1,0,0.2,0l0,0.1l0.3,0l0.4,0
			l0.3-0.1l0.2,0c0.1,0,0.2,0,0.2,0.1c0,0,0-0.1,0.1-0.1l0-0.1l0.1-0.2l0-0.2c0-0.1,0-0.2,0.1-0.3l0-0.3c0,0,0,0,0-0.1
			c0,0,0-0.1,0-0.1v-0.1l0.1-0.1l0.1-0.3l0.1-0.1l0-0.2c0.1-0.1,0.1-0.2,0.1-0.3c0,0,0,0,0-0.1c0,0,0-0.1,0-0.2s0-0.1,0.1-0.2
			c0,0,0-0.1,0.1-0.1c0-0.1,0-0.1,0-0.1l0-0.1v0c0,0,0-0.1,0.1-0.1l0-0.1c0,0,0-0.1,0.1-0.1c0.1-0.1,0.1-0.2,0.2-0.3
			c0.1,0,0.1-0.1,0.2-0.2l0.2-0.1h0.1l0.1-0.1l0.2,0.1c0.1-0.1,0.2-0.1,0.3-0.1l0.2,0c0.1,0,0.1,0,0.1,0c0,0,0.1,0,0.1,0
			c0,0,0.1,0.1,0.1,0.2l0.2,0.1c0.1,0.1,0.1,0.3,0.2,0.3L150.7,35.1L150.7,35.1z"/>
		<path fill="#F48CB1" d="M153.3,40.6c0.1,0.1,0.1,0.1,0.1,0.2c0,0,0,0.1-0.1,0.2c-0.1,0.1-0.1,0.2-0.1,0.3l-0.1,0l-0.1,0.2l-0.1,0
			l-0.3,0.2l-0.1,0.1l-0.1,0l-0.1,0.1h-0.1l0,0.1l-0.1,0c-0.1,0-0.1,0-0.2,0.1l-0.1-0.1c-0.1,0-0.1,0.1-0.2,0.1
			c-0.1,0-0.1,0-0.2-0.1c0,0-0.1,0-0.1,0l-0.1-0.1c-0.2,0-0.3-0.1-0.4-0.2v-0.1l-0.2-0.1l0-0.1c0,0-0.1-0.1-0.1-0.1v-0.1l-0.1-0.5
			l0-0.4l0-0.2v-0.2l0.1-0.2l0-0.1c0,0,0.1-0.1,0.1-0.1c0,0,0-0.1,0.1-0.2c0-0.1,0-0.1,0-0.3l0.1-0.1l-0.1-0.1
			c0-0.1,0.1-0.1,0.1-0.1l-0.1-0.3c0-0.1,0-0.1,0-0.2c0,0.1,0.1,0.1,0.1,0.1c0,0,0.1,0,0.2,0c0,0,0,0,0-0.1c0,0,0-0.1,0.1-0.1
			c0.1-0.2,0.1-0.3,0.2-0.5c0.1-0.1,0.1-0.1,0.1-0.2h0.1l0.1-0.1l0.1,0c0,0,0-0.1,0.1-0.2c0.1,0,0.2-0.1,0.3-0.2c0,0,0,0,0.1,0
			c0,0,0,0,0.1-0.1c0.1,0,0.2-0.1,0.2-0.1c0,0,0.1,0,0.1,0.1l0.1,0l0.1,0h0.1c0,0.1,0.1,0.2,0.2,0.2h0c0,0,0,0.1,0.1,0.1l0,0
			c0.1,0.1,0.2,0.2,0.2,0.4l0,0.1l0,0.3l-0.1,0l-0.1,0.3l-0.2,0.3l0,0.1c-0.2,0.2-0.5,0.3-0.6,0.4c0,0,0,0.1-0.1,0.1c0,0,0,0-0.1,0
			l-0.2,0.2h-0.1l-0.2,0.1l-0.1-0.1c0,0-0.1,0-0.2,0c-0.1,0.1-0.2,0.2-0.2,0.4l-0.1,0.1c0,0.1,0,0.2-0.1,0.3l-0.1,0l0.1,0.4
			l-0.1,0.1l0,0.1l0,0.1c0,0,0,0.1,0,0.2c0,0.1,0,0.2,0.1,0.2c0,0,0,0.1,0.1,0.2c0.1,0.1,0.2,0.1,0.3,0.1v0.1l0.3,0l0.4,0l0.3,0
			c0.1-0.1,0.2-0.1,0.2-0.1l0.1-0.1h0.1l0-0.1c0.2-0.1,0.2-0.1,0.2-0.1c0,0,0,0,0-0.1c0,0,0.1-0.1,0.1-0.1l0-0.1
			c0.2,0,0.2-0.1,0.3-0.3C153.2,40.6,153.3,40.6,153.3,40.6z M152.5,38.2c0,0,0.1,0,0.1-0.1l0-0.1c0.1-0.1,0.1-0.2,0.1-0.3
			c0,0,0-0.1,0-0.1c0-0.1,0-0.2-0.1-0.3l-0.2-0.1c-0.1,0-0.1,0-0.1,0l-0.1,0c-0.1,0-0.1,0-0.1,0.1c-0.1,0-0.2,0-0.3,0.1l0,0.1
			c0,0,0,0,0,0c0,0,0,0,0,0c0,0,0,0,0,0s0,0,0,0s0,0,0,0c0,0,0,0,0,0c0,0,0,0,0,0c0,0,0,0-0.1,0.1l-0.1,0.1l-0.1,0.3l-0.1,0.1
			c0,0,0,0.1-0.1,0.1s-0.1,0.2-0.3,0.5l0.1,0l0,0.1l0.2,0.1c0.1-0.1,0.2-0.1,0.3-0.1l0-0.1c0,0,0.1,0,0.1,0c0,0,0.1,0,0.1-0.1l0.1,0
			l0.1-0.1h0.1l0.1-0.1C152.3,38.3,152.4,38.3,152.5,38.2L152.5,38.2z"/>
		<path fill="#F48CB1" d="M157.8,40.7L157.8,40.7c-0.1,0.1-0.1,0.2-0.2,0.4l-0.1,0.1l0,0.1h-0.1l-0.1,0.1H157l-0.1,0.1
			c0,0-0.1,0-0.1,0.1c0,0-0.1,0-0.1,0c0,0-0.1,0-0.1,0v0.1l-0.2,0l-0.1,0l-0.1,0l0,0l-0.1,0l-0.1,0h-0.1c0,0-0.1,0-0.2,0l-0.1,0
			l-0.1,0.1l0,0l-0.1,0c-0.1-0.1-0.2-0.1-0.2-0.1c0,0-0.1,0-0.1,0c0,0-0.1,0-0.2,0l-0.2,0c-0.1,0-0.1,0-0.2,0l0,0l-0.1,0.1
			c0,0,0,0-0.1,0l0-0.1c-0.2,0-0.3-0.2-0.3-0.5l0.2,0l0-0.1l0.1-0.1l0,0.1h0.1v0.1l0.1-0.1c0.1,0,0.1,0,0.1,0.1c0,0,0,0.1,0,0.1
			l0.1,0v0.2l0.3,0l0.1,0.1l0-0.1l1.3-0.1l0.5-0.1l0-0.1l0.1,0l0,0c0.2,0,0.3-0.1,0.4-0.2l0,0l0-0.1l0.1-0.1l0,0l-0.1-0.1l0-0.1
			l-0.1-0.1l0-0.1c-0.1,0-0.1,0-0.1-0.1l0,0l-0.1-0.1h0l0-0.1h-0.1c0-0.1-0.1-0.1-0.1-0.1l-0.1,0c-0.1,0-0.2,0-0.3-0.1h-0.1
			l-0.1-0.1l-0.1,0l0-0.1h-0.1l-0.1-0.1l-0.3-0.1l-0.1-0.1l-0.4-0.1l0,0l-0.3-0.2l-0.1-0.3l-0.1-0.2l0-0.5l0-0.1
			c0-0.1,0-0.3,0.1-0.4c0.1-0.1,0.2-0.1,0.2-0.2l0.1,0c0-0.1,0.1-0.2,0.2-0.3l0.1-0.1l0.6-0.3l0.3-0.1l0.3-0.1l0.5,0l0,0.1h0
			c0.1,0,0.1,0,0.1,0.1v0.1l0.1,0.1c0,0.2-0.1,0.3-0.1,0.3c0,0.1,0,0.1-0.1,0.1c0,0-0.1-0.1-0.1-0.2l-0.3,0l-0.1,0
			c-0.1-0.1-0.2-0.1-0.2-0.1c0,0,0,0,0,0l-0.1,0.1c-0.1,0-0.2,0-0.3,0.1c-0.1,0-0.2,0.1-0.3,0.1h-0.1l-0.1,0.1c0,0-0.1,0-0.2,0.1
			l0,0.1l-0.1,0l-0.1,0.1l-0.1,0.2c-0.1,0.1-0.2,0.1-0.2,0.1l-0.1,0.4l0.1,0v0c0,0.1,0.1,0.2,0.2,0.3v0.1l0.3,0.2h0.1l0.2,0.2h0.2
			l0.1,0.1l0.2,0l0.1,0.1l0.5,0.1c0,0,0,0.1,0.1,0.1c0.1,0,0.2,0,0.2,0.1s0.1,0.1,0.2,0.1l0,0.1l0.1,0.1h0.2l0.2,0.1
			c0,0.1,0.1,0.1,0.1,0.2l0,0l0.1,0.1l0.1,0l0,0.1C157.7,40.6,157.8,40.6,157.8,40.7z"/>
		<path fill="#F48CB1" d="M162.4,40.7L162.4,40.7c-0.1,0.1-0.1,0.2-0.2,0.4l-0.1,0.1l0,0.1h-0.1l-0.1,0.1h-0.2l-0.1,0.1
			c0,0-0.1,0-0.1,0.1c0,0-0.1,0-0.1,0c0,0-0.1,0-0.1,0v0.1l-0.2,0l-0.1,0l-0.1,0l0,0l-0.1,0l-0.1,0h-0.1c0,0-0.1,0-0.2,0l-0.1,0
			l-0.1,0.1l0,0l-0.1,0c-0.1-0.1-0.2-0.1-0.2-0.1c0,0-0.1,0-0.1,0c0,0-0.1,0-0.2,0l-0.2,0c-0.1,0-0.1,0-0.2,0l0,0l-0.1,0.1
			c0,0,0,0-0.1,0l0-0.1c-0.2,0-0.3-0.2-0.3-0.5l0.2,0l0-0.1l0.1-0.1l0,0.1h0.1v0.1l0.1-0.1c0.1,0,0.1,0,0.1,0.1c0,0,0,0.1,0,0.1
			l0.1,0v0.2l0.3,0l0.1,0.1l0-0.1l1.3-0.1l0.5-0.1l0-0.1l0.1,0l0,0c0.2,0,0.3-0.1,0.4-0.2l0,0l0-0.1l0.1-0.1l0,0l-0.1-0.1l0-0.1
			l-0.1-0.1l0-0.1c-0.1,0-0.1,0-0.1-0.1l0,0l-0.1-0.1h0l0-0.1h-0.1c0-0.1-0.1-0.1-0.1-0.1l-0.1,0c-0.1,0-0.2,0-0.3-0.1h-0.1
			l-0.1-0.1l-0.1,0l0-0.1h-0.1l-0.1-0.1l-0.3-0.1l-0.1-0.1l-0.4-0.1l0,0l-0.3-0.2l-0.1-0.3l-0.1-0.2l0-0.5l0-0.1
			c0-0.1,0-0.3,0.1-0.4c0.1-0.1,0.2-0.1,0.2-0.2l0.1,0c0-0.1,0.1-0.2,0.2-0.3l0.1-0.1l0.6-0.3l0.3-0.1l0.3-0.1l0.5,0l0,0.1h0
			c0.1,0,0.1,0,0.1,0.1v0.1l0.1,0.1c0,0.2-0.1,0.3-0.1,0.3c0,0.1,0,0.1-0.1,0.1c0,0-0.1-0.1-0.1-0.2l-0.3,0l-0.1,0
			c-0.1-0.1-0.2-0.1-0.2-0.1c0,0,0,0,0,0l-0.1,0.1c-0.1,0-0.2,0-0.3,0.1c-0.1,0-0.2,0.1-0.3,0.1h-0.1l-0.1,0.1c0,0-0.1,0-0.2,0.1
			l0,0.1l-0.1,0l-0.1,0.1l-0.1,0.2c-0.1,0.1-0.2,0.1-0.2,0.1l-0.1,0.4l0.1,0v0c0,0.1,0.1,0.2,0.2,0.3v0.1l0.3,0.2h0.1l0.2,0.2h0.2
			l0.1,0.1l0.2,0l0.1,0.1l0.5,0.1c0,0,0,0.1,0.1,0.1c0.1,0,0.2,0,0.2,0.1s0.1,0.1,0.2,0.1l0,0.1l0.1,0.1h0.2l0.2,0.1
			c0,0.1,0.1,0.1,0.1,0.2l0,0l0.1,0.1l0.1,0l0,0.1C162.3,40.6,162.3,40.6,162.4,40.7z"/>
		<path fill="#F48CB1" d="M164.9,34.8c0,0.1-0.1,0.1-0.2,0.2v0.1l-0.1,0.1c0,0-0.1,0.1-0.1,0.1c0,0,0,0-0.1,0l-0.3,0.3l-0.1,0.1
			l-0.3,0.1l-0.1,0.2l-0.1,0.1c0,0-0.1,0.1-0.2,0.2l-0.1,0l0-0.1l0.2-0.1c0-0.2,0.1-0.3,0.1-0.3c0.1,0,0.1,0,0.1,0v0l0.1,0l0,0
			l0-0.1h0l0-0.1h0.2v-0.1l0.1,0l0.1-0.1l0.1,0l0.1-0.1c0,0,0,0,0.1-0.1h0.1l0-0.1c0.1-0.1,0.1-0.1,0.1-0.2
			C164.7,34.6,164.8,34.7,164.9,34.8z M165.9,40.1l0,0.1l-0.1,0.1l0,0.1l-0.1,0c0,0.1-0.1,0.2-0.1,0.3l-0.1,0l-0.1,0.1
			c0,0-0.1,0.1-0.2,0.2H165c0,0.1-0.1,0.1-0.2,0.1c-0.1,0.1-0.1,0.1-0.1,0.2c-0.1,0-0.1,0.1-0.2,0.1c-0.1,0-0.1,0-0.2,0l0,0.1h-0.2
			l-0.1,0.1l-0.3-0.2l-0.1-0.3l0-0.5l0-0.1l0.1-0.9l0.1-0.1l0-0.5c0-0.1,0-0.1,0-0.2c0-0.1,0-0.1,0.1-0.2l0,0c0-0.1,0-0.2-0.1-0.3
			l0-0.1v-0.2l0.1-0.1c0,0,0-0.1,0-0.2s0-0.1,0-0.1c0-0.1,0-0.1,0-0.1c0,0,0,0,0,0c0-0.1-0.1-0.2-0.1-0.2c0-0.1,0-0.1,0.1-0.1
			c0,0,0,0,0.1,0c0,0,0.1,0,0.1,0c0,0,0,0,0.1,0c0-0.1,0-0.1,0.1-0.1c0,0,0.1,0,0.1,0c0,0,0,0.1,0,0.2l0.1,0.1l-0.1,0.1l-0.1,0.7
			l0.1,0.2c0,0.1,0,0.1-0.1,0.2l0,0.1l0,0.1l-0.1,0.4l0,0.1l-0.1,0.3v0.3l-0.1,0.2l0,0.1l0,0.2c0,0.2,0,0.3,0.1,0.5l0,0.1l0.1,0.1
			l0.1,0l0.1,0.1l0.1-0.1c0,0,0.1-0.1,0.2-0.1l0.1-0.1l0,0l0.1-0.1l0.1,0c0.1-0.1,0.2-0.1,0.3-0.1c0,0,0.1-0.1,0.1-0.1l0.1-0.1
			l0.1,0l0-0.1h0l0-0.1l0.2-0.1l0-0.1L165.9,40.1C165.9,40.1,165.9,40.1,165.9,40.1z"/>
		<path fill="#F48CB1" d="M169.9,39l-0.1,0.2l0,0.1l0,0.2c0,0,0,0.1-0.1,0.2v0.1l-0.1,0.2l-0.1,0.1c0,0-0.1,0.1-0.1,0.3l-0.1,0
			l0,0.1l-0.1,0.1l-0.1,0.2l-0.2,0.1l0,0.1l-0.1,0.1c-0.1,0.1-0.1,0.1-0.1,0.2c0,0-0.1,0-0.1,0.1c-0.1,0-0.1,0-0.1,0.1
			c0,0.1-0.1,0.2-0.3,0.2c0,0.1-0.1,0.1-0.1,0.1c0,0,0,0-0.1,0c-0.1,0.1-0.2,0.1-0.3,0.2l-0.1,0.1l-0.1-0.1l0,0.1l-0.2-0.1l-0.4,0
			c-0.1-0.1-0.2-0.2-0.3-0.4l0-0.1l-0.1-0.4l0.1-0.1l-0.1-0.3l0.1-0.2c0,0,0-0.1,0-0.1c0-0.1,0-0.1,0-0.1c0-0.1,0-0.1,0.1-0.2v-0.1
			c0-0.1,0-0.2,0.1-0.2h0.1c0.1-0.1,0.1-0.1,0.1-0.2l0-0.1l0-0.2v-0.1c0.1-0.1,0.1-0.2,0.1-0.2l0-0.2c0-0.1,0-0.1,0-0.1
			c0.1-0.1,0.2-0.1,0.2-0.2c0,0,0-0.1,0-0.1l0.1-0.2c0,0,0,0,0.1-0.1c0,0,0,0,0.1,0l0-0.1c0.1,0,0.2-0.1,0.2-0.2c0-0.1,0-0.1,0-0.2
			c0.2,0,0.4-0.1,0.5-0.4h0.1c0,0,0.1-0.1,0.1-0.1c0,0,0,0,0.1,0c0.1,0,0.1,0,0.2,0l0.2-0.1v0.1c0.1,0,0.2,0,0.3,0.1h0.1
			c0,0.1,0.1,0.1,0.1,0.1l0,0c0.1,0.1,0.2,0.2,0.2,0.3l0.1,0.1l0.1,0l0.2,0.2l0.2,0.5v0.1L169.9,39z M169.6,39.3
			c0-0.1,0.1-0.1,0.1-0.1c0,0,0,0,0-0.1s0,0,0,0h0.1c0,0,0-0.1-0.1-0.1l0,0l-0.1-0.2l0-0.2l-0.1-0.2c-0.1,0-0.1-0.1-0.1-0.1v0
			c0,0,0,0,0-0.1c0,0,0,0,0,0v0c0,0,0-0.1,0-0.1l-0.1-0.1l-0.1,0l0-0.1l0-0.1l-0.1-0.1l-0.1-0.1l-0.3-0.1l-0.1,0
			c-0.2,0-0.3,0.1-0.3,0.2l0,0.3l-0.2,0l-0.3,0.2l0,0.1l-0.1,0.1l-0.1,0.3l-0.1,0.1c0,0,0,0.1,0,0.1c0,0.1,0,0.1,0,0.2l-0.1,0.1
			c0,0,0,0.1,0,0.2c0,0.1,0,0.1-0.1,0.2v0.1l-0.1,0.1v0.1l0,0.1l0,0.1l-0.1,0.3l0,0.1v0.2l0,0.2l0,0.3l0.2,0.2c0,0,0.1,0.1,0.2,0.1
			l0,0.1l0.1,0l0.1,0l0.1-0.1l0.3,0l0.1,0l0-0.1l0.1,0c0.1,0,0.2,0,0.2-0.1l0.1,0l0-0.1l0.1,0l0.1-0.1c0.1-0.1,0.1-0.1,0.1-0.1h0.2
			l0.1-0.1l0.2-0.2l0.1-0.1c0,0,0.1-0.1,0.1-0.1l0.1-0.1c0-0.1,0-0.2,0.1-0.3l0-0.1l0.1-0.1l0-0.1c0-0.1,0.1-0.1,0.1-0.1h-0.1
			c0,0,0-0.1,0-0.1c0,0,0,0,0-0.1s0-0.1,0-0.1c0,0,0-0.1,0-0.1C169.6,39.4,169.6,39.4,169.6,39.3C169.6,39.3,169.6,39.3,169.6,39.3z
			"/>
		<path fill="#F48CB1" d="M176.9,39.9c0,0.1,0,0.1-0.1,0.2l0,0c0,0,0,0.1-0.1,0.2c-0.1,0.1-0.1,0.2-0.1,0.3l-0.1,0
			c0,0.1-0.1,0.2-0.2,0.3c0,0,0,0.1-0.1,0.1h0c0,0.1,0,0.1-0.1,0.1l-0.1,0.1l-0.1,0l-0.1,0.1c0,0,0,0-0.1,0l-0.2,0l-0.1,0l-0.1,0
			l0,0l-0.1,0l-0.1-0.1H175c0,0,0-0.1,0-0.1c-0.1-0.1-0.2-0.2-0.2-0.3v-0.1l-0.1-0.1v-0.1l0.1,0l0-0.1l-0.1-0.2l0-0.3l-0.1-0.2v-0.3
			c-0.1-0.5-0.1-0.8-0.1-0.9v0c0-0.1,0-0.1,0-0.1c0,0,0,0,0-0.1c-0.1-0.1-0.1-0.2-0.1-0.3l-0.1,0l-0.2,0.2l-0.1,0.1l-0.4,0.4
			l-0.1,0.3c-0.1,0.1-0.1,0.2-0.1,0.2c0,0.1-0.1,0.1-0.2,0.2l0,0.1l-0.1,0.2l-0.1,0v0.1h-0.1l-0.2,0.2c0,0.1-0.1,0.2-0.1,0.2
			c0,0-0.1,0.1-0.1,0.2s-0.1,0.1-0.1,0.1l0,0c-0.1,0.1-0.1,0.2-0.2,0.3s-0.1,0.1-0.2,0.2c0,0.1-0.1,0.2-0.1,0.2l0,0.1
			c0,0,0,0.1-0.1,0.1c0,0-0.1,0.1-0.3,0.1c-0.1,0-0.1-0.1-0.1-0.2c0-0.1-0.1-0.2-0.1-0.2l0-0.1l0.1-0.1l0-0.1l0.1-0.1l-0.1-0.1
			l0-0.1l-0.1-0.2l0.1-0.1l0-0.1c0-0.1,0.1-0.2,0.1-0.4v-0.1c0,0,0-0.1-0.1-0.1c0.1,0,0.1-0.1,0.1-0.1l0-0.2l0.1-0.4l0-0.1l0-0.2
			l-0.1-0.1l0-0.3l0-0.1l0-0.2l0-0.3l0.1-0.1c0.1,0,0.2,0.1,0.2,0.1c0,0,0,0,0,0.1c0,0,0,0.1,0,0.2l0.1,0.1l0,0.2l0,0.4l-0.1,0.2
			l0,0.3v0.1l-0.1,0.2l0.1,0.2c0,0,0,0.1-0.1,0.3l0.1,0.1c-0.1,0.2-0.1,0.3-0.1,0.4l0,0.4l0,0.1l0.1-0.1h0.1l0.1-0.2
			c0.1,0,0.1-0.1,0.1-0.1c0-0.1,0.1-0.1,0.2-0.1c0-0.1,0-0.1,0.1-0.2c0,0,0.1,0,0.1-0.1c0.1-0.1,0.1-0.1,0.2-0.2v-0.1h0
			c0,0,0.1,0,0.1-0.1c0,0,0.1-0.1,0.1-0.1c0-0.1,0.1-0.2,0.1-0.2l0.1-0.2l0.1-0.3c0-0.1,0-0.1,0-0.1c0,0,0,0,0,0
			c0.1-0.1,0.2-0.2,0.2-0.3v-0.1c0.1,0,0.2-0.1,0.2-0.1c0,0,0,0,0-0.1s0,0,0,0c0,0,0-0.1,0-0.1c0,0,0.1,0,0.1,0
			c0.1-0.2,0.1-0.3,0.2-0.3c0,0,0.1,0,0.1,0c0-0.1,0-0.2,0.1-0.2c0,0,0.1-0.1,0.2-0.2l0.1-0.1h0c0.1,0.1,0.1,0.1,0.1,0.1l0,0.1
			l0.1,0l0,0.2l0.1,0.1l0,0.2l0.1,0.3v0.3l0.1,0.4l0,0.4l0.1,0.3l0,0.3c0,0,0,0,0.1,0.1c0,0.1,0.1,0.1,0.1,0.2l0,0v0.2l0.1,0.1
			l0,0.1l0.1,0v0.1c0.1,0,0.1,0.1,0.2,0.1c0.1,0,0.1,0,0.2,0c0,0,0,0,0.1,0c0,0,0.1,0,0.1-0.1c0.1,0,0.1,0,0.1-0.1v0
			c0,0,0.1-0.1,0.2-0.1c0,0,0.1-0.1,0.1-0.1l0,0c0,0,0,0,0-0.1c0,0,0.1-0.1,0.1-0.1c0,0,0.1-0.1,0.1-0.1l0.1-0.1
			c0-0.1,0.1-0.2,0.2-0.3l0.1-0.1h0.1L176.9,39.9z"/>
		<path fill="#F48CB1" d="M181.2,41.4l-0.1,0.1l0,0.1c-0.1,0-0.1,0-0.2,0.1l-0.1,0l-0.1,0l-0.2-0.2v-0.2l-0.1-0.1l0-0.3l-0.1-0.7
			l0-0.2l-0.1-0.1l0.1-0.1l-0.1-0.1l0-0.1l0.1,0l0-0.1h0.1v-0.2l0-0.1c0,0-0.1,0-0.1-0.1l-0.2,0.1c0,0.1-0.1,0.1-0.1,0.2l0,0.1
			l-0.1,0.1l0,0.1l-0.1,0.1v0.1c-0.1,0.1-0.1,0.1-0.1,0.2l-0.1,0l-0.2,0.3l-0.3,0.3l-0.1,0.1l-0.2,0.2l-0.1,0.1l-0.3,0.2l-0.3,0.4
			l-0.1,0c0,0-0.1,0-0.2,0.1h0c-0.1,0-0.1-0.1-0.1-0.2c-0.3-0.1-0.4-0.2-0.4-0.4l0.1-0.1c0-0.1-0.1-0.3-0.1-0.4l-0.1,0l0-0.1
			c0,0,0-0.1,0-0.1c0,0,0-0.1,0-0.2l0.1-0.4c0,0,0,0,0-0.1c0,0,0-0.1,0-0.1c0-0.1,0-0.1,0-0.1c0,0,0-0.1,0-0.1l0,0
			c0.1-0.1,0.1-0.1,0.1-0.2c0,0,0-0.1,0-0.1c0,0,0,0,0,0c0,0,0,0,0.1-0.1c-0.1,0-0.1,0-0.1-0.1s0-0.1,0.1-0.1v0c0-0.1,0-0.1,0.1-0.2
			c0-0.1,0.1-0.1,0.1-0.1l-0.1,0l0.1-0.2v-0.1c0-0.1,0-0.3,0.1-0.4l0-0.2l0,0c0,0,0-0.1,0-0.1c0,0,0,0,0.1,0v-0.2c0,0,0.1,0,0.1-0.1
			c0,0,0,0,0-0.1c0,0,0.1-0.1,0.1-0.2c0.1-0.1,0.1-0.2,0.1-0.2h0c0.1,0,0.1,0,0.1-0.1c0,0,0,0,0-0.1c0.1,0,0.2,0,0.2-0.1l0.2-0.1
			l0.5,0v0l0.4,0.1h0c0.1,0,0.1,0,0.1,0.1l0.1,0c0,0.1,0.1,0.1,0.1,0.1l0.1,0l0.1,0.1l0.2,0.1v0.1c0.1-0.1,0.2-0.1,0.4-0.2v0.2H181
			l0.1,0.1l0,0l0.1,0.3l-0.1,0.1l0,0.2c0,0.1,0,0.1-0.1,0.2l0.1,0.1c0,0,0,0-0.1,0.1c0,0,0,0.1,0,0.2c0,0,0,0,0,0.1l0,0.1l0,0.1
			l0,0.1l0,0.1l-0.1,0.1l0,0.2l0,0l0,0l0,0c0,0,0,0,0,0c0,0,0,0.1,0,0.1l0,0.1l-0.1,0.1c0,0,0,0.1,0,0.1l0,0.1l-0.1,0.1
			c0,0.1,0.1,0.1,0.1,0.1c-0.1,0.1-0.1,0.2-0.1,0.4l0.1,0l0,0.1c0,0,0,0,0,0.1c0,0.1,0,0.1-0.1,0.2h0.1l0,0.2l0.2,0l0.1,0.1
			c0,0,0,0,0,0c0,0,0,0.1,0.1,0.1h0C181.1,41.3,181.1,41.3,181.2,41.4C181.1,41.3,181.1,41.4,181.2,41.4z M180.7,37.6l-0.1-0.2
			l-0.2-0.1l-0.3-0.3c0,0-0.1,0-0.1,0c0,0,0,0-0.1,0l-0.1-0.1h-0.2l-0.1-0.1l-0.1,0l-0.1,0l-0.1,0l-0.2,0c-0.1,0-0.2,0-0.4,0.1l0,0
			l-0.1,0l0,0l-0.1,0v0.1c-0.1,0-0.1,0.2-0.2,0.3c-0.1,0.2-0.1,0.4-0.2,0.5l0.1,0l-0.1,0.1l0,0.1c-0.1,0.1-0.1,0.2-0.1,0.3v0.1
			l-0.1,0.1v0.2c-0.1,0.1-0.1,0.1-0.1,0.2l0,0v0.2l0,0.1c0,0.1,0,0.2,0,0.3l0.1,0.1c0,0-0.1,0.1-0.1,0.1l0,0.1l-0.1,0.1l0.1,0.2
			l-0.1,0.1l0,0.3l0,0.1l0.1,0l0,0.1c0.1,0,0.1,0.1,0.1,0.1l0.2-0.1c0-0.1,0.1-0.2,0.2-0.2l0-0.1c0.1,0,0.2,0,0.2,0c0,0,0,0,0-0.1
			c0,0,0-0.1,0.1-0.1h0c0,0,0,0,0,0l0.2-0.2h0l0.1-0.1c0,0,0.1-0.1,0.2-0.1l0.1-0.2c0.1-0.1,0.2-0.1,0.2-0.2h0.1l0.1-0.1l0-0.1
			l0.1,0c0,0,0,0,0-0.1c0,0,0,0,0.1-0.1c0-0.1,0.1-0.1,0.1-0.2l0,0c0-0.1,0-0.1,0.1-0.2c0-0.1,0-0.1,0.1-0.1c0,0,0.1,0,0.1,0h0.1
			l0-0.1c0,0,0,0,0,0c0,0,0,0,0-0.1c0.1-0.1,0.1-0.2,0.1-0.2l0-0.1l0.1-0.1l0-0.1c0-0.1,0.1-0.1,0.1-0.2l0.1-0.1L180.7,37.6z"/>
		<path fill="#F48CB1" d="M185,40.2C185.1,40.2,185.1,40.3,185,40.2c0.1,0.2,0,0.2,0,0.2c-0.1,0.1-0.2,0.2-0.3,0.2
			c0,0-0.1,0.1-0.3,0.3c-0.1,0-0.1,0-0.1,0.1c0,0-0.1,0.1-0.1,0.1c-0.1,0-0.2,0-0.2,0.1l-0.1,0l0,0l0,0.1h0c-0.1,0-0.1,0-0.2,0.1
			s-0.2,0.1-0.2,0.1l-0.1,0h-0.1l-0.1-0.1l-0.1-0.1c0-0.1-0.1-0.2-0.2-0.3l0-0.3l0-0.1l-0.1-0.1l0-0.3l0-0.3l0-0.1c0,0,0-0.1,0-0.1
			c0,0,0-0.1-0.1-0.2c0-0.3,0-0.5,0-0.5c0-0.1,0-0.1-0.1-0.2l0.1,0l0-0.4l0-0.2l0.1-0.2l-0.1-0.2c0.1-0.1,0.1-0.2,0.1-0.3v-0.3
			l0-0.1l0-0.5l0-0.5c0-0.1-0.1-0.3-0.1-0.4l0-0.3l0-0.1L183,35c0,0,0.1,0,0.1-0.1c0,0,0.1,0,0.1,0c0,0,0,0,0,0l0.1,0.2l0.1,0.1
			l-0.1,0.1v0c0,0,0,0.1,0,0.1c0,0.1,0,0.2-0.1,0.2l0,0.1c0,0.2,0,0.4,0.1,0.4l-0.1,0.3l0.1,0.1c-0.1,0.1-0.1,0.3-0.1,0.4
			c0,0.1,0,0.1,0.1,0.1l-0.1,0.2c0,0.1,0,0.1,0,0.1c0,0,0,0.1,0,0.1l0,0.1l-0.1,0.3l0,0.2c0,0,0,0.2-0.1,0.3l0.1,0.2l0,0.4l-0.1,0
			l0.1,0.1l0,0.2l0,0.3l0,0.1l0,0c0,0.1,0.1,0.1,0.1,0.3c0,0,0,0.1,0,0.1l0,0.1l0,0.2l0,0.1l0,0.1l0.1,0.3l0.1,0.1
			c0.1-0.1,0.2-0.1,0.2-0.1l0.1,0l0.1-0.1c0,0,0.1,0,0.1-0.1c0-0.1,0.1-0.1,0.2-0.1l0.1-0.1l0.1,0l0-0.1l0.1,0l0.1-0.1l0.1,0
			c0,0,0,0,0.1-0.1s0.1-0.1,0.2-0.1c0,0,0-0.1,0.1-0.1c0,0,0,0,0,0C185,40.3,185,40.2,185,40.2z"/>
		<path fill="#F48CB1" d="M192,39.8l-0.2,0.2c0,0.1,0,0.1,0,0.1c0,0,0,0.1,0,0.1c0,0,0,0.1-0.1,0.1c0,0-0.1,0.1-0.1,0.2
			c0,0.1-0.1,0.1-0.1,0.2c0,0.1-0.1,0.1-0.1,0.2c-0.1,0-0.1,0.1-0.2,0.1c-0.1,0.1-0.2,0.1-0.3,0.2l-0.1,0c0,0-0.1,0-0.2,0.1l-0.1,0
			l-0.2,0.2l-0.1-0.1l-0.2,0.1l-0.2-0.1l-0.1,0.1l-0.1,0l-0.1,0l0,0l-0.1,0c-0.1,0-0.1,0-0.1-0.1l-0.2-0.1l-0.2-0.2
			c-0.1-0.1-0.1-0.2-0.1-0.3v0l-0.1-0.2v-0.2l0-0.1l0-0.2l0-0.2l0.1-0.2l0-0.1l0.1-0.2l0-0.2l0-0.1c0-0.1,0-0.2,0.1-0.2l0-0.2
			l0.1-0.1l0-0.1l0.1-0.1c0-0.1,0.1-0.4,0.2-0.7l0.2-0.2l0.1-0.1l0.1-0.1c0-0.1,0.1-0.2,0.1-0.2c0.1,0,0.1,0,0.2-0.1
			c0-0.1,0.1-0.2,0.3-0.2c0,0,0.1,0,0.2,0.1s0.2,0.1,0.2,0.2c0.1,0,0.2,0,0.2,0.1l0.3,0l0,0.1l0.1,0.1l0,0.1l0.1,0.1l0,0.1l0,0.1
			l0,0.2l0.1,0.1v0.1l0,0.2l-0.2,0.1l-0.2-0.3l0-0.3l0-0.1v-0.1l-0.1-0.1c0,0-0.1-0.1-0.2-0.2l-0.1,0.1H190c-0.1,0-0.2,0-0.2,0.1
			s-0.1,0.1-0.2,0.3c-0.1,0.2-0.2,0.3-0.2,0.3l0,0.1l-0.1,0.1v0.2l-0.1,0.1l0,0.1c0,0.1-0.1,0.2-0.1,0.2c0,0.1,0,0.1-0.1,0.1l0,0.2
			l-0.1,0.2l0,0.2l0,0l0,0.4l0,0l0,0.1l0,0l0.2,0.2c0,0,0,0.1,0.1,0.2l0,0L189,41l0.1,0l0,0.1l0.6,0.1c0-0.1,0.1-0.1,0.1-0.1
			c0,0,0.1,0,0.1,0c0.1,0,0.1-0.1,0.1-0.1l0.1,0c0,0,0,0,0.1,0s0.1,0,0.2,0c0.1-0.1,0.1-0.2,0.2-0.2c0,0,0.1,0,0.1,0
			c0.2-0.1,0.3-0.1,0.3-0.2c0-0.1,0.1-0.1,0.2-0.1h0c0.3-0.3,0.4-0.5,0.4-0.5c0.1-0.1,0.1-0.2,0.2-0.3l0.1-0.1l0-0.1
			C192,39.6,192,39.7,192,39.8z"/>
		<path fill="#F48CB1" d="M196.1,39l-0.1,0.2l0,0.1l0,0.2c0,0,0,0.1-0.1,0.2v0.1l-0.1,0.2l-0.1,0.1c0,0-0.1,0.1-0.1,0.3l-0.1,0
			l0,0.1l-0.1,0.1l-0.1,0.2l-0.2,0.1l0,0.1l-0.1,0.1c-0.1,0.1-0.1,0.1-0.1,0.2c0,0-0.1,0-0.1,0.1c-0.1,0-0.1,0-0.1,0.1
			c0,0.1-0.1,0.2-0.3,0.2c0,0.1-0.1,0.1-0.1,0.1c0,0,0,0-0.1,0c-0.1,0.1-0.2,0.1-0.3,0.2l-0.1,0.1l-0.1-0.1l0,0.1l-0.2-0.1l-0.4,0
			c-0.1-0.1-0.2-0.2-0.3-0.4l0-0.1l-0.1-0.4l0.1-0.1l-0.1-0.3l0.1-0.2c0,0,0-0.1,0-0.1c0-0.1,0-0.1,0-0.1c0-0.1,0-0.1,0.1-0.2v-0.1
			c0-0.1,0-0.2,0.1-0.2h0.1c0.1-0.1,0.1-0.1,0.1-0.2l0-0.1l0-0.2v-0.1c0.1-0.1,0.1-0.2,0.1-0.2l0-0.2c0-0.1,0-0.1,0-0.1
			c0.1-0.1,0.2-0.1,0.2-0.2c0,0,0-0.1,0-0.1l0.1-0.2c0,0,0,0,0.1-0.1c0,0,0,0,0.1,0l0-0.1c0.1,0,0.2-0.1,0.2-0.2c0-0.1,0-0.1,0-0.2
			c0.2,0,0.4-0.1,0.5-0.4h0.1c0,0,0.1-0.1,0.1-0.1c0,0,0,0,0.1,0c0.1,0,0.1,0,0.2,0l0.2-0.1v0.1c0.1,0,0.2,0,0.3,0.1h0.1
			c0,0.1,0.1,0.1,0.1,0.1l0,0c0.1,0.1,0.2,0.2,0.2,0.3l0.1,0.1l0.1,0l0.2,0.2l0.2,0.5v0.1L196.1,39z M195.8,39.3
			c0-0.1,0.1-0.1,0.1-0.1c0,0,0,0,0-0.1s0,0,0,0h0.1c0,0,0-0.1-0.1-0.1l0,0l-0.1-0.2l0-0.2l-0.1-0.2c-0.1,0-0.1-0.1-0.1-0.1v0
			c0,0,0,0,0-0.1c0,0,0,0,0,0v0c0,0,0-0.1,0-0.1l-0.1-0.1l-0.1,0l0-0.1l0-0.1l-0.1-0.1l-0.1-0.1l-0.3-0.1l-0.1,0
			c-0.2,0-0.3,0.1-0.3,0.2l0,0.3l-0.2,0l-0.3,0.2l0,0.1l-0.1,0.1l-0.1,0.3l-0.1,0.1c0,0,0,0.1,0,0.1c0,0.1,0,0.1,0,0.2l-0.1,0.1
			c0,0,0,0.1,0,0.2c0,0.1,0,0.1-0.1,0.2v0.1l-0.1,0.1v0.1l0,0.1l0,0.1l-0.1,0.3l0,0.1v0.2l0,0.2l0,0.3l0.2,0.2c0,0,0.1,0.1,0.2,0.1
			l0,0.1l0.1,0l0.1,0l0.1-0.1l0.3,0l0.1,0l0-0.1l0.1,0c0.1,0,0.2,0,0.2-0.1l0.1,0l0-0.1l0.1,0l0.1-0.1c0.1-0.1,0.1-0.1,0.1-0.1h0.2
			l0.1-0.1l0.2-0.2l0.1-0.1c0,0,0.1-0.1,0.1-0.1l0.1-0.1c0-0.1,0-0.2,0.1-0.3l0-0.1l0.1-0.1l0-0.1c0-0.1,0.1-0.1,0.1-0.1h-0.1
			c0,0,0-0.1,0-0.1c0,0,0,0,0-0.1s0-0.1,0-0.1c0,0,0-0.1,0-0.1C195.8,39.4,195.9,39.4,195.8,39.3C195.9,39.3,195.8,39.3,195.8,39.3z
			"/>
		<path fill="#F48CB1" d="M200.7,40.7L200.7,40.7c-0.1,0.1-0.1,0.2-0.2,0.4l-0.1,0.1l0,0.1h-0.1l-0.1,0.1h-0.2l-0.1,0.1
			c0,0-0.1,0-0.1,0.1c0,0-0.1,0-0.1,0c0,0-0.1,0-0.1,0v0.1l-0.2,0l-0.1,0l-0.1,0l0,0l-0.1,0l-0.1,0h-0.1c0,0-0.1,0-0.2,0l-0.1,0
			l-0.1,0.1l0,0l-0.1,0c-0.1-0.1-0.2-0.1-0.2-0.1c0,0-0.1,0-0.1,0c0,0-0.1,0-0.2,0l-0.2,0c-0.1,0-0.1,0-0.2,0l0,0l-0.1,0.1
			c0,0,0,0-0.1,0l0-0.1c-0.2,0-0.3-0.2-0.3-0.5l0.2,0l0-0.1l0.1-0.1l0,0.1h0.1v0.1l0.1-0.1c0.1,0,0.1,0,0.1,0.1c0,0,0,0.1,0,0.1
			l0.1,0v0.2l0.3,0l0.1,0.1l0-0.1l1.3-0.1l0.5-0.1l0-0.1l0.1,0l0,0c0.2,0,0.3-0.1,0.4-0.2l0,0l0-0.1l0.1-0.1l0,0l-0.1-0.1l0-0.1
			l-0.1-0.1l0-0.1c-0.1,0-0.1,0-0.1-0.1l0,0l-0.1-0.1h0l0-0.1h-0.1c0-0.1-0.1-0.1-0.1-0.1l-0.1,0c-0.1,0-0.2,0-0.3-0.1h-0.1
			l-0.1-0.1l-0.1,0l0-0.1h-0.1l-0.1-0.1l-0.3-0.1l-0.1-0.1l-0.4-0.1l0,0l-0.3-0.2l-0.1-0.3l-0.1-0.2l0-0.5l0-0.1
			c0-0.1,0-0.3,0.1-0.4c0.1-0.1,0.2-0.1,0.2-0.2l0.1,0c0-0.1,0.1-0.2,0.2-0.3l0.1-0.1l0.6-0.3l0.3-0.1l0.3-0.1l0.5,0l0,0.1h0
			c0.1,0,0.1,0,0.1,0.1v0.1l0.1,0.1c0,0.2-0.1,0.3-0.1,0.3c0,0.1,0,0.1-0.1,0.1c0,0-0.1-0.1-0.1-0.2l-0.3,0l-0.1,0
			c-0.1-0.1-0.2-0.1-0.2-0.1c0,0,0,0,0,0l-0.1,0.1c-0.1,0-0.2,0-0.3,0.1c-0.1,0-0.2,0.1-0.3,0.1h-0.1l-0.1,0.1c0,0-0.1,0-0.2,0.1
			l0,0.1l-0.1,0l-0.1,0.1l-0.1,0.2c-0.1,0.1-0.2,0.1-0.2,0.1l-0.1,0.4l0.1,0v0c0,0.1,0.1,0.2,0.2,0.3v0.1l0.3,0.2h0.1l0.2,0.2h0.2
			l0.1,0.1l0.2,0l0.1,0.1l0.5,0.1c0,0,0,0.1,0.1,0.1c0.1,0,0.2,0,0.2,0.1s0.1,0.1,0.2,0.1l0,0.1l0.1,0.1h0.2l0.2,0.1
			c0,0.1,0.1,0.1,0.1,0.2l0,0l0.1,0.1l0.1,0l0,0.1C200.6,40.6,200.7,40.6,200.7,40.7z"/>
		<path fill="#F48CB1" d="M210.1,40.6L210.1,40.6l-0.1,0.1c0,0.1,0,0.1-0.1,0.2c0,0-0.1,0.1-0.1,0.1v0l0,0c0,0-0.1,0.1-0.1,0.1
			c-0.1,0-0.1,0.1-0.1,0.1l-0.1,0l0,0.1c-0.1,0.1-0.1,0.1-0.1,0.1s-0.1,0-0.1,0c-0.1,0-0.2,0.1-0.2,0.1c-0.1,0-0.2,0-0.3,0
			c0,0,0-0.1-0.1-0.1s-0.1,0-0.1,0c0,0-0.1-0.1-0.2-0.1l0-0.1c-0.1,0-0.1-0.1-0.1-0.2l0-0.1l-0.1-0.1l-0.1-0.3l-0.1-0.2v-0.1
			l-0.1-0.3l0-0.1l-0.1-0.4l0-0.2l0-0.3l0-0.4l-0.1,0.1l-0.2,0.4l-0.1,0.2c-0.1,0.1-0.2,0.2-0.3,0.3c-0.1,0-0.1,0.1-0.1,0.2
			c0,0-0.1,0.1-0.1,0.1c0,0.1-0.1,0.1-0.1,0.1c0,0,0,0,0,0.1v0c-0.1,0.1-0.2,0.2-0.2,0.4c0,0-0.1,0.1-0.1,0.2
			c-0.1,0.1-0.1,0.2-0.3,0.4c-0.1,0-0.1,0.1-0.2,0.2c0,0.1-0.1,0.1-0.1,0.1s-0.1,0-0.1,0.1v0c-0.1,0-0.2,0-0.3,0.1
			c-0.1,0-0.1,0-0.1-0.1l0-0.1l-0.1-0.1V41l-0.1-0.3c0,0,0,0,0-0.1c0,0,0-0.1-0.1-0.1l0-0.4l0-0.1l0-0.2l0-0.1v-0.1l0-0.1l0.1-0.2
			l-0.1-0.3l0-0.1l0-0.4l-0.1-0.2l0-0.2l-0.1-0.1c-0.1-0.2-0.1-0.3-0.1-0.3c0,0,0-0.1-0.1-0.1c0,0,0,0,0,0c0,0-0.1,0-0.3,0.1
			l-0.1,0.2l-0.1,0.1l-0.3,0.4l0,0.1l-0.2,0.2l-0.1,0.2c0,0-0.1,0.1-0.1,0.2c0,0.1-0.1,0.1-0.1,0.1c0,0-0.1,0-0.1,0.1l0,0.2
			c0,0-0.1,0.1-0.1,0.2c0,0.1-0.1,0.1-0.1,0.2c0,0-0.1,0.1-0.1,0.2c-0.1,0-0.1,0-0.1,0.1c0,0.1-0.1,0.1-0.1,0.1c0,0.1,0,0.1,0,0.1v0
			c-0.1,0.1-0.1,0.1-0.1,0.1c0,0,0,0,0,0.1c-0.1,0-0.1,0.1-0.2,0.2c0,0.1-0.1,0.1-0.1,0.2v0c0,0,0,0.1,0,0.1s-0.1,0.1-0.1,0.1
			c-0.1,0.1-0.1,0.1-0.2,0.1c-0.1,0-0.1-0.1-0.1-0.2c0,0,0,0,0-0.1c0-0.1,0-0.1-0.1-0.1v-0.1c0-0.1,0-0.1,0-0.2l-0.1-0.2l0-0.2
			l0-0.2v0c0-0.1,0-0.1,0.1-0.2l0-0.1c0,0,0-0.1,0-0.2c0-0.1,0-0.1,0-0.1v-0.2c0-0.1,0.1-0.1,0.1-0.2l-0.1-0.1c0,0,0,0,0-0.1
			s0,0,0-0.1c0,0,0-0.1,0.1-0.1c0-0.1,0.1-0.1,0.1-0.2l-0.1-0.2l0-0.1L202,38l0-0.1l-0.1-0.3l0-0.2l-0.1-0.2
			c0.1-0.2,0.1-0.2,0.2-0.2l0,0l0,0.1c0.1,0,0.1,0.1,0.1,0.2l0,0.2c0,0,0,0.1,0.1,0.1c-0.1,0.1-0.1,0.2-0.1,0.2v0l0.1,0.5l0,0.4
			l0,0.1l0,0.1l0,0.1l0,0.1c-0.1,0-0.1,0.1-0.1,0.1l0,0.1c0,0.1,0,0.1-0.1,0.1l0,0.3l0,0.1c0,0.1,0,0.1,0,0.2c0,0.1,0,0.1,0,0.1
			c0,0,0,0.1,0,0.1c0,0.1,0.1,0.1,0.1,0.1c0,0,0,0.1-0.1,0.1l0.1,0.1l0.2-0.3l0-0.1c0,0,0.1-0.1,0.1-0.1s0-0.1,0.1-0.1
			c0,0,0.1-0.1,0.1-0.2c0,0,0,0,0.1-0.1c0,0,0.1-0.1,0.1-0.1c0-0.1,0.1-0.1,0.2-0.2c0,0,0-0.1,0-0.1c0,0,0-0.1,0.1-0.1
			c0,0,0.1-0.1,0.1-0.2l0.1-0.2l0-0.1c0,0,0-0.1,0.1-0.1l0.2-0.2c0,0,0.1-0.1,0.1-0.2c0.1-0.1,0.1-0.2,0.2-0.3
			c0.1-0.1,0.1-0.1,0.1-0.2c0.1,0,0.1,0,0.1-0.1c0.1,0,0.1-0.1,0.1-0.1l0,0c0,0,0.1-0.1,0.1-0.2c0.1-0.1,0.2-0.1,0.2-0.1
			c0,0,0.1,0,0.3,0.1c0,0,0,0,0,0.1c0,0,0,0,0,0.1l0.1,0c0,0,0,0.1,0.1,0.3v0.2l0.1,0.1V38c0.1,0.2,0.1,0.3,0.1,0.4l0,0.2l0,0.1
			l-0.1,0.1l0.1,0.3c0,0.1,0,0.2,0,0.3l0,0.3l0,0.1l0,0.1l0,0c0.1,0.2,0.1,0.4,0.1,0.6l0,0.1l0,0c0.1,0.1,0.1,0.2,0.1,0.2l0.2,0.1
			l0.5-0.6c0,0,0.1-0.1,0.1-0.2c0-0.1,0.1-0.2,0.1-0.2c0,0,0.1,0,0.1-0.2c0-0.1,0.1-0.2,0.1-0.2c0-0.1,0-0.1,0-0.1
			c0,0,0.1-0.1,0.2-0.1v0c0-0.1,0.1-0.2,0.2-0.3c0-0.1,0.1-0.2,0.1-0.3c0.1-0.1,0.2-0.2,0.2-0.2l0.1-0.2c0-0.1,0.1-0.2,0.1-0.2
			c0.1,0,0.2-0.2,0.3-0.4c0.1,0,0.1-0.1,0.2-0.2l0.2-0.1l0.1,0.1l-0.1,0.1l0.1,0.1c-0.1,0-0.1,0-0.1,0.1c0,0,0,0.1,0.1,0.1l-0.1,0.1
			l-0.1,0.5c0,0,0.1,0,0.1,0.1c-0.1,0.1-0.1,0.2-0.1,0.4l0,0.2l0,0.1l0,0.1c0,0,0,0,0,0c0,0,0,0,0,0.1s0,0.1,0,0.1
			c0,0,0.1,0.1,0.1,0.1c0,0,0,0,0,0.1c0,0,0,0,0,0.1c0,0,0,0,0,0.1c0,0.1,0,0.3,0.1,0.4c0,0.1,0.1,0.2,0.1,0.4l0.1,0.1l0.1,0.2
			c0.1,0,0.1,0.1,0.1,0.1l0.1,0.1l0.2,0c0.1,0,0.1,0,0.1,0c0,0,0.1,0,0.1,0c0.1,0,0.1,0,0.1-0.1c0,0,0.1-0.1,0.2-0.1
			c0.1-0.1,0.1-0.2,0.2-0.3l0.1-0.1l0.1-0.1l0.1,0C210,40.5,210,40.6,210.1,40.6z"/>
		<path fill="#F48CB1" d="M213.6,40.6c0.1,0.1,0.1,0.1,0.1,0.2c0,0,0,0.1-0.1,0.2c-0.1,0.1-0.1,0.2-0.1,0.3l-0.1,0l-0.1,0.2l-0.1,0
			l-0.3,0.2l-0.1,0.1l-0.1,0l-0.1,0.1h-0.1l0,0.1l-0.1,0c-0.1,0-0.1,0-0.2,0.1l-0.1-0.1c-0.1,0-0.1,0.1-0.2,0.1
			c-0.1,0-0.1,0-0.2-0.1c0,0-0.1,0-0.1,0l-0.1-0.1c-0.2,0-0.3-0.1-0.4-0.2v-0.1l-0.2-0.1l0-0.1c0,0-0.1-0.1-0.1-0.1v-0.1l-0.1-0.5
			l0-0.4l0-0.2v-0.2l0.1-0.2l0-0.1c0,0,0.1-0.1,0.1-0.1c0,0,0-0.1,0.1-0.2c0-0.1,0-0.1,0-0.3L211,39l-0.1-0.1c0-0.1,0.1-0.1,0.1-0.1
			l-0.1-0.3c0-0.1,0-0.1,0-0.2c0,0.1,0.1,0.1,0.1,0.1c0,0,0.1,0,0.2,0c0,0,0,0,0-0.1c0,0,0-0.1,0.1-0.1c0.1-0.2,0.1-0.3,0.2-0.5
			c0.1-0.1,0.1-0.1,0.1-0.2h0.1l0.1-0.1l0.1,0c0,0,0-0.1,0.1-0.2c0.1,0,0.2-0.1,0.3-0.2c0,0,0,0,0.1,0c0,0,0,0,0.1-0.1
			c0.1,0,0.2-0.1,0.2-0.1c0,0,0.1,0,0.1,0.1l0.1,0l0.1,0h0.1c0,0.1,0.1,0.2,0.2,0.2h0c0,0,0,0.1,0.1,0.1l0,0
			c0.1,0.1,0.2,0.2,0.2,0.4l0,0.1l0,0.3l-0.1,0l-0.1,0.3l-0.2,0.3l0,0.1c-0.2,0.2-0.5,0.3-0.6,0.4c0,0,0,0.1-0.1,0.1c0,0,0,0-0.1,0
			l-0.2,0.2h-0.1l-0.2,0.1l-0.1-0.1c0,0-0.1,0-0.2,0c-0.1,0.1-0.2,0.2-0.2,0.4l-0.1,0.1c0,0.1,0,0.2-0.1,0.3l-0.1,0l0.1,0.4
			l-0.1,0.1l0,0.1l0,0.1c0,0,0,0.1,0,0.2c0,0.1,0,0.2,0.1,0.2c0,0,0,0.1,0.1,0.2c0.1,0.1,0.2,0.1,0.3,0.1v0.1l0.3,0l0.4,0l0.3,0
			c0.1-0.1,0.2-0.1,0.2-0.1l0.1-0.1h0.1l0-0.1c0.2-0.1,0.2-0.1,0.2-0.1c0,0,0,0,0-0.1c0,0,0.1-0.1,0.1-0.1l0-0.1
			c0.2,0,0.2-0.1,0.3-0.3C213.5,40.6,213.5,40.6,213.6,40.6z M212.7,38.2c0,0,0.1,0,0.1-0.1l0-0.1c0.1-0.1,0.1-0.2,0.1-0.3
			c0,0,0-0.1,0-0.1c0-0.1,0-0.2-0.1-0.3l-0.2-0.1c-0.1,0-0.1,0-0.1,0l-0.1,0c-0.1,0-0.1,0-0.1,0.1c-0.1,0-0.2,0-0.3,0.1l0,0.1
			c0,0,0,0,0,0c0,0,0,0,0,0c0,0,0,0,0,0s0,0,0,0s0,0,0,0c0,0,0,0,0,0c0,0,0,0,0,0c0,0,0,0-0.1,0.1l-0.1,0.1l-0.1,0.3l-0.1,0.1
			c0,0,0,0.1-0.1,0.1s-0.1,0.2-0.3,0.5l0.1,0l0,0.1l0.2,0.1c0.1-0.1,0.2-0.1,0.3-0.1l0-0.1c0,0,0.1,0,0.1,0c0,0,0.1,0,0.1-0.1l0.1,0
			l0.1-0.1h0.1l0.1-0.1C212.6,38.3,212.6,38.3,212.7,38.2L212.7,38.2z"/>
		<path fill="#F48CB1" d="M215.5,37.6l0.7,0l0.7,0l0.2,0l0.1,0h0.4c0.1,0,0.1,0,0.1,0.1c0,0.1-0.1,0.1-0.2,0.1c0,0,0,0-0.1,0
			c0,0-0.1,0-0.1,0.1l-0.1,0l-0.3,0c-0.1,0.1-0.3,0.1-0.4,0.1l-0.2,0l-0.1,0.1H216v-0.1l-0.2,0.1h-0.1l0,0.1c-0.1,0-0.2,0-0.3,0
			c0,0,0,0.1-0.1,0.1c0,0,0,0-0.1,0l-0.1,0l-0.1,0.1l0,0.5l0,0.3l0,0.4l0,0.4l0,0.2v0.2l0.1,0.3v0c0,0.1,0.1,0.2,0.2,0.3l0,0.1
			l0.2,0l0.1,0.1l0.4,0.1l0.5-0.1l0.1,0l0.4-0.2l0.1,0c0,0,0.1,0.1,0.1,0.1c0,0.1,0,0.1-0.1,0.2l-0.1,0l-0.2,0.1l-0.3,0l-0.1,0.1
			l-0.1-0.1c-0.1,0.1-0.2,0.1-0.4,0.1l-0.2,0h-0.1l-0.4-0.2l-0.2-0.3l-0.1-0.1l-0.2-0.5l-0.1-0.5l0-0.2l-0.1-0.1l0-0.1l0-0.2
			l0.1-0.1l0-0.1l0-0.1l0-0.1l0-0.2l0-0.1l0,0v-0.4c0-0.1,0-0.1-0.1-0.1c0,0,0,0-0.1,0l-0.1-0.1l-0.2,0l-0.2-0.1h-0.1
			c-0.1,0-0.1,0-0.1-0.1l0-0.2l-0.1-0.1l0-0.1l0.2,0l0.1,0l0.2,0.1h0.4l0-0.2v-0.2l-0.1-0.2l0.1-0.1c0,0,0-0.1,0-0.1
			c0,0,0-0.1-0.1-0.1l0-0.4l-0.1-0.1l0-0.1c-0.1,0-0.1,0-0.1-0.1l0.1-0.3c0.1-0.1,0.1-0.1,0.1-0.1c0.2,0.1,0.3,0.2,0.3,0.2v0l0,0.1
			c0,0.1,0.1,0.2,0.1,0.2v0c0,0.1,0,0.1,0,0.1c0,0,0,0.1,0,0.1l0,0.1l0,0.1l-0.1,0.1l0.1,0.3l0,0.3l0,0.1l-0.1,0.1l0.1,0.3h0.2
			L215.5,37.6z"/>
		<path fill="#F48CB1" d="M219.7,34.8c0,0.1-0.1,0.1-0.2,0.2v0.1l-0.1,0.1c0,0-0.1,0.1-0.1,0.1c0,0,0,0-0.1,0l-0.3,0.3l-0.1,0.1
			l-0.3,0.1l-0.1,0.2l-0.1,0.1c0,0-0.1,0.1-0.2,0.2l-0.1,0l0-0.1l0.2-0.1c0-0.2,0.1-0.3,0.1-0.3c0.1,0,0.1,0,0.1,0v0l0.1,0l0,0
			l0-0.1h0l0-0.1h0.2v-0.1l0.1,0l0.1-0.1l0.1,0l0.1-0.1c0,0,0,0,0.1-0.1h0.1l0-0.1c0.1-0.1,0.1-0.1,0.1-0.2
			C219.5,34.6,219.6,34.7,219.7,34.8z M220.7,40.1l0,0.1l-0.1,0.1l0,0.1l-0.1,0c0,0.1-0.1,0.2-0.1,0.3l-0.1,0l-0.1,0.1
			c0,0-0.1,0.1-0.2,0.2h-0.1c0,0.1-0.1,0.1-0.2,0.1c-0.1,0.1-0.1,0.1-0.1,0.2c-0.1,0-0.1,0.1-0.2,0.1c-0.1,0-0.1,0-0.2,0l0,0.1h-0.2
			l-0.1,0.1l-0.3-0.2l-0.1-0.3l0-0.5l0-0.1l0.1-0.9l0.1-0.1l0-0.5c0-0.1,0-0.1,0-0.2c0-0.1,0-0.1,0.1-0.2l0,0c0-0.1,0-0.2-0.1-0.3
			l0-0.1v-0.2l0.1-0.1c0,0,0-0.1,0-0.2s0-0.1,0-0.1c0-0.1,0-0.1,0-0.1c0,0,0,0,0,0c0-0.1-0.1-0.2-0.1-0.2c0-0.1,0-0.1,0.1-0.1
			c0,0,0,0,0.1,0c0,0,0.1,0,0.1,0c0,0,0,0,0.1,0c0-0.1,0-0.1,0.1-0.1c0,0,0.1,0,0.1,0c0,0,0,0.1,0,0.2l0.1,0.1l-0.1,0.1l-0.1,0.7
			l0.1,0.2c0,0.1,0,0.1-0.1,0.2l0,0.1l0,0.1l-0.1,0.4l0,0.1l-0.1,0.3v0.3l-0.1,0.2l0,0.1l0,0.2c0,0.2,0,0.3,0.1,0.5l0,0.1l0.1,0.1
			l0.1,0l0.1,0.1l0.1-0.1c0,0,0.1-0.1,0.2-0.1l0.1-0.1l0,0l0.1-0.1l0.1,0c0.1-0.1,0.2-0.1,0.3-0.1c0,0,0.1-0.1,0.1-0.1l0.1-0.1
			l0.1,0l0-0.1h0l0-0.1l0.2-0.1l0-0.1L220.7,40.1C220.7,40.1,220.7,40.1,220.7,40.1z"/>
		<path fill="#F48CB1" d="M224.9,39.8l-0.2,0.2c0,0.1,0,0.1,0,0.1c0,0,0,0.1,0,0.1c0,0,0,0.1-0.1,0.1c0,0-0.1,0.1-0.1,0.2
			c0,0.1-0.1,0.1-0.1,0.2c0,0.1-0.1,0.1-0.1,0.2c-0.1,0-0.1,0.1-0.2,0.1c-0.1,0.1-0.2,0.1-0.3,0.2l-0.1,0c0,0-0.1,0-0.2,0.1l-0.1,0
			l-0.2,0.2l-0.1-0.1l-0.2,0.1l-0.2-0.1l-0.1,0.1l-0.1,0l-0.1,0l0,0l-0.1,0c-0.1,0-0.1,0-0.1-0.1l-0.2-0.1l-0.2-0.2
			c-0.1-0.1-0.1-0.2-0.1-0.3v0l-0.1-0.2v-0.2l0-0.1l0-0.2l0-0.2l0.1-0.2l0-0.1l0.1-0.2l0-0.2l0-0.1c0-0.1,0-0.2,0.1-0.2l0-0.2
			l0.1-0.1l0-0.1l0.1-0.1c0-0.1,0.1-0.4,0.2-0.7l0.2-0.2l0.1-0.1l0.1-0.1c0-0.1,0.1-0.2,0.1-0.2c0.1,0,0.1,0,0.2-0.1
			c0-0.1,0.1-0.2,0.3-0.2c0,0,0.1,0,0.2,0.1s0.2,0.1,0.2,0.2c0.1,0,0.2,0,0.2,0.1l0.3,0l0,0.1l0.1,0.1l0,0.1l0.1,0.1l0,0.1l0,0.1
			l0,0.2l0.1,0.1v0.1l0,0.2l-0.2,0.1l-0.2-0.3l0-0.3l0-0.1v-0.1l-0.1-0.1c0,0-0.1-0.1-0.2-0.2l-0.1,0.1h-0.1c-0.1,0-0.2,0-0.2,0.1
			s-0.1,0.1-0.2,0.3c-0.1,0.2-0.2,0.3-0.2,0.3l0,0.1l-0.1,0.1v0.2l-0.1,0.1l0,0.1c0,0.1-0.1,0.2-0.1,0.2c0,0.1,0,0.1-0.1,0.1l0,0.2
			l-0.1,0.2l0,0.2l0,0l0,0.4l0,0l0,0.1l0,0l0.2,0.2c0,0,0,0.1,0.1,0.2l0,0l0.1,0.1l0.1,0l0,0.1l0.6,0.1c0-0.1,0.1-0.1,0.1-0.1
			c0,0,0.1,0,0.1,0c0.1,0,0.1-0.1,0.1-0.1l0.1,0c0,0,0,0,0.1,0s0.1,0,0.2,0c0.1-0.1,0.1-0.2,0.2-0.2c0,0,0.1,0,0.1,0
			c0.2-0.1,0.3-0.1,0.3-0.2c0-0.1,0.1-0.1,0.2-0.1h0c0.3-0.3,0.4-0.5,0.4-0.5c0.1-0.1,0.1-0.2,0.2-0.3l0.1-0.1l0-0.1
			C224.8,39.6,224.9,39.7,224.9,39.8z"/>
		<path fill="#F48CB1" d="M229.2,40.7L229.2,40.7c-0.1,0.1-0.1,0.2-0.2,0.4l-0.1,0.1l0,0.1h-0.1l-0.1,0.1h-0.2l-0.1,0.1
			c0,0-0.1,0-0.1,0.1c0,0-0.1,0-0.1,0c0,0-0.1,0-0.1,0v0.1l-0.2,0l-0.1,0l-0.1,0l0,0l-0.1,0l-0.1,0h-0.1c0,0-0.1,0-0.2,0l-0.1,0
			l-0.1,0.1l0,0l-0.1,0c-0.1-0.1-0.2-0.1-0.2-0.1c0,0-0.1,0-0.1,0c0,0-0.1,0-0.2,0l-0.2,0c-0.1,0-0.1,0-0.2,0l0,0l-0.1,0.1
			c0,0,0,0-0.1,0l0-0.1c-0.2,0-0.3-0.2-0.3-0.5l0.2,0l0-0.1l0.1-0.1l0,0.1h0.1v0.1l0.1-0.1c0.1,0,0.1,0,0.1,0.1c0,0,0,0.1,0,0.1
			l0.1,0v0.2l0.3,0l0.1,0.1l0-0.1l1.3-0.1l0.5-0.1l0-0.1l0.1,0l0,0c0.2,0,0.3-0.1,0.4-0.2l0,0l0-0.1l0.1-0.1l0,0l-0.1-0.1l0-0.1
			l-0.1-0.1l0-0.1c-0.1,0-0.1,0-0.1-0.1l0,0l-0.1-0.1h0l0-0.1h-0.1c0-0.1-0.1-0.1-0.1-0.1l-0.1,0c-0.1,0-0.2,0-0.3-0.1h-0.1
			l-0.1-0.1l-0.1,0l0-0.1h-0.1l-0.1-0.1l-0.3-0.1l-0.1-0.1l-0.4-0.1l0,0l-0.3-0.2l-0.1-0.3l-0.1-0.2l0-0.5l0-0.1
			c0-0.1,0-0.3,0.1-0.4c0.1-0.1,0.2-0.1,0.2-0.2l0.1,0c0-0.1,0.1-0.2,0.2-0.3l0.1-0.1l0.6-0.3l0.3-0.1l0.3-0.1l0.5,0l0,0.1h0
			c0.1,0,0.1,0,0.1,0.1v0.1l0.1,0.1c0,0.2-0.1,0.3-0.1,0.3c0,0.1,0,0.1-0.1,0.1c0,0-0.1-0.1-0.1-0.2l-0.3,0l-0.1,0
			c-0.1-0.1-0.2-0.1-0.2-0.1c0,0,0,0,0,0l-0.1,0.1c-0.1,0-0.2,0-0.3,0.1c-0.1,0-0.2,0.1-0.3,0.1H227l-0.1,0.1c0,0-0.1,0-0.2,0.1
			l0,0.1l-0.1,0l-0.1,0.1l-0.1,0.2c-0.1,0.1-0.2,0.1-0.2,0.1l-0.1,0.4l0.1,0v0c0,0.1,0.1,0.2,0.2,0.3v0.1l0.3,0.2h0.1l0.2,0.2h0.2
			l0.1,0.1l0.2,0l0.1,0.1l0.5,0.1c0,0,0,0.1,0.1,0.1c0.1,0,0.2,0,0.2,0.1s0.1,0.1,0.2,0.1l0,0.1l0.1,0.1h0.2l0.2,0.1
			c0,0.1,0.1,0.1,0.1,0.2l0,0l0.1,0.1l0.1,0l0,0.1C229.2,40.6,229.2,40.6,229.2,40.7z"/>
		<path fill="#F48CB1" d="M236.5,39.8l-0.2,0.2c0,0.1,0,0.1,0,0.1c0,0,0,0.1,0,0.1c0,0,0,0.1-0.1,0.1c0,0-0.1,0.1-0.1,0.2
			c0,0.1-0.1,0.1-0.1,0.2c0,0.1-0.1,0.1-0.1,0.2c-0.1,0-0.1,0.1-0.2,0.1c-0.1,0.1-0.2,0.1-0.3,0.2l-0.1,0c0,0-0.1,0-0.2,0.1l-0.1,0
			l-0.2,0.2l-0.1-0.1l-0.2,0.1l-0.2-0.1l-0.1,0.1l-0.1,0l-0.1,0l0,0l-0.1,0c-0.1,0-0.1,0-0.1-0.1l-0.2-0.1l-0.2-0.2
			c-0.1-0.1-0.1-0.2-0.1-0.3v0l-0.1-0.2v-0.2l0-0.1l0-0.2l0-0.2l0.1-0.2l0-0.1l0.1-0.2l0-0.2l0-0.1c0-0.1,0-0.2,0.1-0.2l0-0.2
			l0.1-0.1l0-0.1l0.1-0.1c0-0.1,0.1-0.4,0.2-0.7l0.2-0.2l0.1-0.1l0.1-0.1c0-0.1,0.1-0.2,0.1-0.2c0.1,0,0.1,0,0.2-0.1
			c0-0.1,0.1-0.2,0.3-0.2c0,0,0.1,0,0.2,0.1s0.2,0.1,0.2,0.2c0.1,0,0.2,0,0.2,0.1l0.3,0l0,0.1l0.1,0.1l0,0.1l0.1,0.1l0,0.1l0,0.1
			l0,0.2l0.1,0.1v0.1l0,0.2l-0.2,0.1l-0.2-0.3l0-0.3l0-0.1v-0.1l-0.1-0.1c0,0-0.1-0.1-0.2-0.2l-0.1,0.1h-0.1c-0.1,0-0.2,0-0.2,0.1
			s-0.1,0.1-0.2,0.3c-0.1,0.2-0.2,0.3-0.2,0.3l0,0.1l-0.1,0.1v0.2l-0.1,0.1l0,0.1c0,0.1-0.1,0.2-0.1,0.2c0,0.1,0,0.1-0.1,0.1l0,0.2
			l-0.1,0.2l0,0.2l0,0l0,0.4l0,0l0,0.1l0,0l0.2,0.2c0,0,0,0.1,0.1,0.2l0,0l0.1,0.1l0.1,0l0,0.1l0.6,0.1c0-0.1,0.1-0.1,0.1-0.1
			c0,0,0.1,0,0.1,0c0.1,0,0.1-0.1,0.1-0.1l0.1,0c0,0,0,0,0.1,0s0.1,0,0.2,0c0.1-0.1,0.1-0.2,0.2-0.2c0,0,0.1,0,0.1,0
			c0.2-0.1,0.3-0.1,0.3-0.2c0-0.1,0.1-0.1,0.2-0.1h0c0.3-0.3,0.4-0.5,0.4-0.5c0.1-0.1,0.1-0.2,0.2-0.3l0.1-0.1l0-0.1
			C236.4,39.6,236.5,39.7,236.5,39.8z"/>
		<path fill="#F48CB1" d="M240.6,39l-0.1,0.2l0,0.1l0,0.2c0,0,0,0.1-0.1,0.2v0.1l-0.1,0.2l-0.1,0.1c0,0-0.1,0.1-0.1,0.3l-0.1,0
			l0,0.1l-0.1,0.1l-0.1,0.2l-0.2,0.1l0,0.1l-0.1,0.1c-0.1,0.1-0.1,0.1-0.1,0.2c0,0-0.1,0-0.1,0.1c-0.1,0-0.1,0-0.1,0.1
			c0,0.1-0.1,0.2-0.3,0.2c0,0.1-0.1,0.1-0.1,0.1c0,0,0,0-0.1,0c-0.1,0.1-0.2,0.1-0.3,0.2l-0.1,0.1l-0.1-0.1l0,0.1l-0.2-0.1l-0.4,0
			c-0.1-0.1-0.2-0.2-0.3-0.4l0-0.1l-0.1-0.4l0.1-0.1l-0.1-0.3l0.1-0.2c0,0,0-0.1,0-0.1c0-0.1,0-0.1,0-0.1c0-0.1,0-0.1,0.1-0.2v-0.1
			c0-0.1,0-0.2,0.1-0.2h0.1c0.1-0.1,0.1-0.1,0.1-0.2l0-0.1l0-0.2v-0.1c0.1-0.1,0.1-0.2,0.1-0.2l0-0.2c0-0.1,0-0.1,0-0.1
			c0.1-0.1,0.2-0.1,0.2-0.2c0,0,0-0.1,0-0.1l0.1-0.2c0,0,0,0,0.1-0.1c0,0,0,0,0.1,0l0-0.1c0.1,0,0.2-0.1,0.2-0.2c0-0.1,0-0.1,0-0.2
			c0.2,0,0.4-0.1,0.5-0.4h0.1c0,0,0.1-0.1,0.1-0.1c0,0,0,0,0.1,0c0.1,0,0.1,0,0.2,0l0.2-0.1v0.1c0.1,0,0.2,0,0.3,0.1h0.1
			c0,0.1,0.1,0.1,0.1,0.1l0,0c0.1,0.1,0.2,0.2,0.2,0.3l0.1,0.1l0.1,0l0.2,0.2l0.2,0.5v0.1L240.6,39z M240.3,39.3
			c0-0.1,0.1-0.1,0.1-0.1c0,0,0,0,0-0.1s0,0,0,0h0.1c0,0,0-0.1-0.1-0.1l0,0l-0.1-0.2l0-0.2l-0.1-0.2c-0.1,0-0.1-0.1-0.1-0.1v0
			c0,0,0,0,0-0.1c0,0,0,0,0,0v0c0,0,0-0.1,0-0.1l-0.1-0.1l-0.1,0l0-0.1l0-0.1l-0.1-0.1l-0.1-0.1l-0.3-0.1l-0.1,0
			c-0.2,0-0.3,0.1-0.3,0.2l0,0.3l-0.2,0l-0.3,0.2l0,0.1l-0.1,0.1l-0.1,0.3l-0.1,0.1c0,0,0,0.1,0,0.1c0,0.1,0,0.1,0,0.2l-0.1,0.1
			c0,0,0,0.1,0,0.2c0,0.1,0,0.1-0.1,0.2v0.1l-0.1,0.1v0.1l0,0.1l0,0.1l-0.1,0.3l0,0.1v0.2l0,0.2l0,0.3l0.2,0.2c0,0,0.1,0.1,0.2,0.1
			l0,0.1l0.1,0l0.1,0l0.1-0.1l0.3,0l0.1,0l0-0.1l0.1,0c0.1,0,0.2,0,0.2-0.1l0.1,0l0-0.1l0.1,0l0.1-0.1c0.1-0.1,0.1-0.1,0.1-0.1h0.2
			l0.1-0.1l0.2-0.2l0.1-0.1c0,0,0.1-0.1,0.1-0.1l0.1-0.1c0-0.1,0-0.2,0.1-0.3l0-0.1l0.1-0.1l0-0.1c0-0.1,0.1-0.1,0.1-0.1h-0.1
			c0,0,0-0.1,0-0.1c0,0,0,0,0-0.1s0-0.1,0-0.1c0,0,0-0.1,0-0.1C240.3,39.4,240.3,39.4,240.3,39.3C240.3,39.3,240.3,39.3,240.3,39.3z
			"/>
		<path fill="#F48CB1" d="M247.6,39.9c0,0.1,0,0.1-0.1,0.2l0,0c0,0,0,0.1-0.1,0.2c-0.1,0.1-0.1,0.2-0.1,0.3l-0.1,0
			c0,0.1-0.1,0.2-0.2,0.3c0,0,0,0.1-0.1,0.1h0c0,0.1,0,0.1-0.1,0.1l-0.1,0.1l-0.1,0l-0.1,0.1c0,0,0,0-0.1,0l-0.2,0l-0.1,0l-0.1,0
			l0,0l-0.1,0l-0.1-0.1h-0.1c0,0,0-0.1,0-0.1c-0.1-0.1-0.2-0.2-0.2-0.3v-0.1l-0.1-0.1v-0.1l0.1,0l0-0.1l-0.1-0.2l0-0.3l-0.1-0.2
			v-0.3c-0.1-0.5-0.1-0.8-0.1-0.9v0c0-0.1,0-0.1,0-0.1c0,0,0,0,0-0.1c-0.1-0.1-0.1-0.2-0.1-0.3l-0.1,0l-0.2,0.2l-0.1,0.1l-0.4,0.4
			l-0.1,0.3c-0.1,0.1-0.1,0.2-0.1,0.2c0,0.1-0.1,0.1-0.2,0.2l0,0.1l-0.1,0.2l-0.1,0v0.1h-0.1l-0.2,0.2c0,0.1-0.1,0.2-0.1,0.2
			c0,0-0.1,0.1-0.1,0.2s-0.1,0.1-0.1,0.1l0,0c-0.1,0.1-0.1,0.2-0.2,0.3s-0.1,0.1-0.2,0.2c0,0.1-0.1,0.2-0.1,0.2l0,0.1
			c0,0,0,0.1-0.1,0.1c0,0-0.1,0.1-0.3,0.1c-0.1,0-0.1-0.1-0.1-0.2c0-0.1-0.1-0.2-0.1-0.2l0-0.1l0.1-0.1l0-0.1l0.1-0.1l-0.1-0.1
			l0-0.1l-0.1-0.2l0.1-0.1l0-0.1c0-0.1,0.1-0.2,0.1-0.4v-0.1c0,0,0-0.1-0.1-0.1c0.1,0,0.1-0.1,0.1-0.1l0-0.2l0.1-0.4l0-0.1l0-0.2
			l-0.1-0.1l0-0.3l0-0.1l0-0.2l0-0.3l0.1-0.1c0.1,0,0.2,0.1,0.2,0.1c0,0,0,0,0,0.1c0,0,0,0.1,0,0.2l0.1,0.1l0,0.2l0,0.4l-0.1,0.2
			l0,0.3v0.1l-0.1,0.2l0.1,0.2c0,0,0,0.1-0.1,0.3l0.1,0.1c-0.1,0.2-0.1,0.3-0.1,0.4l0,0.4l0,0.1l0.1-0.1h0.1l0.1-0.2
			c0.1,0,0.1-0.1,0.1-0.1c0-0.1,0.1-0.1,0.2-0.1c0-0.1,0-0.1,0.1-0.2c0,0,0.1,0,0.1-0.1c0.1-0.1,0.1-0.1,0.2-0.2v-0.1h0
			c0,0,0.1,0,0.1-0.1c0,0,0.1-0.1,0.1-0.1c0-0.1,0.1-0.2,0.1-0.2l0.1-0.2l0.1-0.3c0-0.1,0-0.1,0-0.1c0,0,0,0,0,0
			c0.1-0.1,0.2-0.2,0.2-0.3v-0.1c0.1,0,0.2-0.1,0.2-0.1c0,0,0,0,0-0.1s0,0,0,0c0,0,0-0.1,0-0.1c0,0,0.1,0,0.1,0
			c0.1-0.2,0.1-0.3,0.2-0.3c0,0,0.1,0,0.1,0c0-0.1,0-0.2,0.1-0.2c0,0,0.1-0.1,0.2-0.2l0.1-0.1h0c0.1,0.1,0.1,0.1,0.1,0.1l0,0.1
			l0.1,0l0,0.2l0.1,0.1l0,0.2l0.1,0.3v0.3l0.1,0.4l0,0.4l0.1,0.3l0,0.3c0,0,0,0,0.1,0.1c0,0.1,0.1,0.1,0.1,0.2l0,0v0.2l0.1,0.1
			l0,0.1l0.1,0v0.1c0.1,0,0.1,0.1,0.2,0.1c0.1,0,0.1,0,0.2,0c0,0,0,0,0.1,0c0,0,0.1,0,0.1-0.1c0.1,0,0.1,0,0.1-0.1v0
			c0,0,0.1-0.1,0.2-0.1c0,0,0.1-0.1,0.1-0.1l0,0c0,0,0,0,0-0.1c0,0,0.1-0.1,0.1-0.1c0,0,0.1-0.1,0.1-0.1l0.1-0.1
			c0-0.1,0.1-0.2,0.2-0.3l0.1-0.1h0.1L247.6,39.9z"/>
		<path fill="#F48CB1" d="M251.7,40.7L251.7,40.7c-0.1,0.1-0.1,0.2-0.2,0.4l-0.1,0.1l0,0.1h-0.1l-0.1,0.1h-0.2l-0.1,0.1
			c0,0-0.1,0-0.1,0.1c0,0-0.1,0-0.1,0c0,0-0.1,0-0.1,0v0.1l-0.2,0l-0.1,0l-0.1,0l0,0l-0.1,0l-0.1,0h-0.1c0,0-0.1,0-0.2,0l-0.1,0
			l-0.1,0.1l0,0l-0.1,0c-0.1-0.1-0.2-0.1-0.2-0.1c0,0-0.1,0-0.1,0c0,0-0.1,0-0.2,0l-0.2,0c-0.1,0-0.1,0-0.2,0l0,0l-0.1,0.1
			c0,0,0,0-0.1,0l0-0.1c-0.2,0-0.3-0.2-0.3-0.5l0.2,0l0-0.1l0.1-0.1l0,0.1h0.1v0.1l0.1-0.1c0.1,0,0.1,0,0.1,0.1c0,0,0,0.1,0,0.1
			l0.1,0v0.2l0.3,0l0.1,0.1l0-0.1l1.3-0.1l0.5-0.1l0-0.1l0.1,0l0,0c0.2,0,0.3-0.1,0.4-0.2l0,0l0-0.1l0.1-0.1l0,0l-0.1-0.1l0-0.1
			l-0.1-0.1l0-0.1c-0.1,0-0.1,0-0.1-0.1l0,0l-0.1-0.1h0l0-0.1h-0.1c0-0.1-0.1-0.1-0.1-0.1l-0.1,0c-0.1,0-0.2,0-0.3-0.1h-0.1
			l-0.1-0.1l-0.1,0l0-0.1h-0.1l-0.1-0.1l-0.3-0.1l-0.1-0.1l-0.4-0.1l0,0l-0.3-0.2l-0.1-0.3l-0.1-0.2l0-0.5l0-0.1
			c0-0.1,0-0.3,0.1-0.4c0.1-0.1,0.2-0.1,0.2-0.2l0.1,0c0-0.1,0.1-0.2,0.2-0.3l0.1-0.1l0.6-0.3l0.3-0.1l0.3-0.1l0.5,0l0,0.1h0
			c0.1,0,0.1,0,0.1,0.1v0.1l0.1,0.1c0,0.2-0.1,0.3-0.1,0.3c0,0.1,0,0.1-0.1,0.1c0,0-0.1-0.1-0.1-0.2l-0.3,0l-0.1,0
			c-0.1-0.1-0.2-0.1-0.2-0.1c0,0,0,0,0,0l-0.1,0.1c-0.1,0-0.2,0-0.3,0.1c-0.1,0-0.2,0.1-0.3,0.1h-0.1l-0.1,0.1c0,0-0.1,0-0.2,0.1
			l0,0.1l-0.1,0l-0.1,0.1l-0.1,0.2c-0.1,0.1-0.2,0.1-0.2,0.1l-0.1,0.4l0.1,0v0c0,0.1,0.1,0.2,0.2,0.3v0.1l0.3,0.2h0.1l0.2,0.2h0.2
			l0.1,0.1l0.2,0l0.1,0.1l0.5,0.1c0,0,0,0.1,0.1,0.1c0.1,0,0.2,0,0.2,0.1s0.1,0.1,0.2,0.1l0,0.1l0.1,0.1h0.2l0.2,0.1
			c0,0.1,0.1,0.1,0.1,0.2l0,0l0.1,0.1l0.1,0l0,0.1C251.6,40.6,251.7,40.6,251.7,40.7z"/>
		<path fill="#F48CB1" d="M257.6,41c0,0,0.1,0,0.2,0c0.1,0,0.1,0,0.1,0.1c0,0,0,0.1-0.1,0.2l-0.1,0l-0.1,0.1c0,0-0.1,0.1-0.2,0.1
			l-0.2,0.1c0,0-0.2,0.1-0.3,0.1c0,0-0.1,0-0.2,0c-0.1,0-0.1-0.1-0.2-0.1l-0.3-0.3l-0.1-0.3l-0.1-0.1v-0.1c0-0.1,0-0.2-0.1-0.3
			l0-0.3c0-0.1,0-0.2,0-0.2c0-0.1,0-0.2-0.1-0.2l0-0.5l-0.1,0.1l-0.1,0.1l-0.1,0.1c0,0-0.1,0.1-0.1,0.1l-0.1,0
			c-0.1,0.1-0.1,0.1-0.1,0.2c-0.1,0-0.2,0.1-0.2,0.2s-0.1,0.2-0.2,0.2c-0.1,0.1-0.1,0.1-0.2,0.1s-0.1,0-0.1,0.1l-0.3,0.4h0l-0.2,0.3
			l-0.2,0.1l-0.1,0.1c-0.1,0-0.3,0.1-0.4,0.2l-0.2-0.1c0,0,0,0-0.1,0c0,0-0.1,0-0.1-0.1c0,0,0,0,0-0.1l-0.1-0.1c0,0,0-0.1,0-0.1
			L253,41l0.1-0.1H253l-0.1-0.2l0.1-0.1l-0.1-0.1c0-0.2,0-0.3,0-0.3l0-0.2c0-0.1,0-0.1,0.1-0.2l-0.1-0.1c0.1-0.1,0.1-0.1,0.1-0.2
			c0,0,0-0.1-0.1-0.2c0,0,0.1-0.1,0.1-0.2c0,0,0-0.1,0-0.1l0-0.3l0.1-0.7c0-0.1,0-0.3-0.1-0.4l0-0.2c0-0.1,0.1-0.2,0.2-0.2l0.2,0
			l0.1,0.1l0,0.2l0,0.5l0,0.3l-0.1,0.2l0,0.1l0,0.2V39c0,0,0,0,0,0.1c0,0,0,0.1,0,0.1c0,0,0,0.1,0,0.1l0.1,0.1l-0.1,0.1l0.1,0.1
			l0,0.1l0,0.2v0.2l0.1,0.1l-0.1,0.3c0,0,0,0.1,0.1,0.2l0,0.1l0.1,0.1c0.1,0,0.1,0.1,0.2,0.2c0.1,0,0.1,0,0.2-0.1
			c0.1-0.1,0.1-0.1,0.2-0.2c0,0,0,0,0,0c0.1-0.1,0.2-0.1,0.2-0.2c0.1,0,0.1,0,0.2,0l0-0.1l0.1,0c0.1-0.1,0.2-0.2,0.3-0.2l0-0.1
			l0.2-0.2c0-0.1,0.1-0.2,0.2-0.2l0-0.1l0.1,0l0.1-0.2h0.1v-0.1l0.1-0.1l0.1-0.1c0.1,0,0.2-0.1,0.3-0.1l0-0.1l0.1,0v-0.1l0,0
			c0-0.2,0.1-0.3,0.2-0.3l0,0l0.2-0.6h0v-0.1h0c0,0,0.1-0.1,0.2-0.4l0.2,0l0,0l0.1,0.2l-0.1,0.4l-0.2,0.2l-0.1,0.4l-0.1,0.1v0.2
			l-0.1,0.1l0,0.2l-0.1,0.1l0,0.5l0,0.6l0,0.1l0,0.1h0v0.2c0.1,0.2,0.2,0.3,0.2,0.3l0.1,0l0,0.1c0.1,0,0.2,0.1,0.3,0.1l0.1,0l0.1,0
			l0.2-0.1C257.4,41.1,257.5,41.1,257.6,41z"/>
		<path fill="#F48CB1" d="M261.1,40.2C261.1,40.2,261.2,40.3,261.1,40.2c0.1,0.2,0,0.2,0,0.2c-0.1,0.1-0.2,0.2-0.3,0.2
			c0,0-0.1,0.1-0.3,0.3c-0.1,0-0.1,0-0.1,0.1c0,0-0.1,0.1-0.1,0.1c-0.1,0-0.2,0-0.2,0.1l-0.1,0l0,0l0,0.1h0c-0.1,0-0.1,0-0.2,0.1
			s-0.2,0.1-0.2,0.1l-0.1,0h-0.1l-0.1-0.1l-0.1-0.1c0-0.1-0.1-0.2-0.2-0.3l0-0.3l0-0.1l-0.1-0.1l0-0.3l0-0.3l0-0.1c0,0,0-0.1,0-0.1
			c0,0,0-0.1-0.1-0.2c0-0.3,0-0.5,0-0.5c0-0.1,0-0.1-0.1-0.2l0.1,0l0-0.4l0-0.2l0.1-0.2l-0.1-0.2c0.1-0.1,0.1-0.2,0.1-0.3v-0.3
			l0-0.1l0-0.5l0-0.5c0-0.1-0.1-0.3-0.1-0.4l0-0.3l0-0.1L259,35c0,0,0.1,0,0.1-0.1c0,0,0.1,0,0.1,0c0,0,0,0,0,0l0.1,0.2l0.1,0.1
			l-0.1,0.1v0c0,0,0,0.1,0,0.1c0,0.1,0,0.2-0.1,0.2l0,0.1c0,0.2,0,0.4,0.1,0.4l-0.1,0.3l0.1,0.1c-0.1,0.1-0.1,0.3-0.1,0.4
			c0,0.1,0,0.1,0.1,0.1l-0.1,0.2c0,0.1,0,0.1,0,0.1c0,0,0,0.1,0,0.1l0,0.1l-0.1,0.3l0,0.2c0,0,0,0.2-0.1,0.3l0.1,0.2l0,0.4l-0.1,0
			l0.1,0.1l0,0.2l0,0.3l0,0.1l0,0c0,0.1,0.1,0.1,0.1,0.3c0,0,0,0.1,0,0.1l0,0.1l0,0.2l0,0.1l0,0.1l0.1,0.3l0.1,0.1
			c0.1-0.1,0.2-0.1,0.2-0.1l0.1,0l0.1-0.1c0,0,0.1,0,0.1-0.1c0-0.1,0.1-0.1,0.2-0.1l0.1-0.1l0.1,0l0-0.1l0.1,0l0.1-0.1l0.1,0
			c0,0,0,0,0.1-0.1s0.1-0.1,0.2-0.1c0,0,0-0.1,0.1-0.1c0,0,0,0,0,0C261,40.3,261,40.2,261.1,40.2z"/>
		<path fill="#F48CB1" d="M262.8,37.6l0.7,0l0.7,0l0.2,0l0.1,0h0.4c0.1,0,0.1,0,0.1,0.1c0,0.1-0.1,0.1-0.2,0.1c0,0,0,0-0.1,0
			c0,0-0.1,0-0.1,0.1l-0.1,0l-0.3,0c-0.1,0.1-0.3,0.1-0.4,0.1l-0.2,0l-0.1,0.1h-0.1v-0.1l-0.2,0.1h-0.1l0,0.1c-0.1,0-0.2,0-0.3,0
			c0,0,0,0.1-0.1,0.1c0,0,0,0-0.1,0l-0.1,0l-0.1,0.1l0,0.5l0,0.3l0,0.4l0,0.4l0,0.2v0.2l0.1,0.3v0c0,0.1,0.1,0.2,0.2,0.3l0,0.1
			l0.2,0l0.1,0.1l0.4,0.1l0.5-0.1l0.1,0l0.4-0.2l0.1,0c0,0,0.1,0.1,0.1,0.1c0,0.1,0,0.1-0.1,0.2l-0.1,0l-0.2,0.1l-0.3,0l-0.1,0.1
			l-0.1-0.1c-0.1,0.1-0.2,0.1-0.4,0.1l-0.2,0h-0.1l-0.4-0.2l-0.2-0.3l-0.1-0.1l-0.2-0.5l-0.1-0.5l0-0.2l-0.1-0.1l0-0.1l0-0.2
			l0.1-0.1l0-0.1l0-0.1l0-0.1l0-0.2l0-0.1l0,0v-0.4c0-0.1,0-0.1-0.1-0.1c0,0,0,0-0.1,0l-0.1-0.1l-0.2,0l-0.2-0.1h-0.1
			c-0.1,0-0.1,0-0.1-0.1l0-0.2l-0.1-0.1l0-0.1l0.2,0l0.1,0l0.2,0.1h0.4l0-0.2v-0.2l-0.1-0.2l0.1-0.1c0,0,0-0.1,0-0.1
			c0,0,0-0.1-0.1-0.1l0-0.4l-0.1-0.1l0-0.1c-0.1,0-0.1,0-0.1-0.1l0.1-0.3c0.1-0.1,0.1-0.1,0.1-0.1c0.2,0.1,0.3,0.2,0.3,0.2v0l0,0.1
			c0,0.1,0.1,0.2,0.1,0.2v0c0,0.1,0,0.1,0,0.1c0,0,0,0.1,0,0.1l0,0.1l0,0.1l-0.1,0.1l0.1,0.3l0,0.3l0,0.1l-0.1,0.1l0.1,0.3h0.2
			L262.8,37.6z"/>
		<path fill="#F48CB1" d="M269.3,41.4l-0.1,0.1l0,0.1c-0.1,0-0.1,0-0.2,0.1l-0.1,0l-0.1,0l-0.2-0.2v-0.2l-0.1-0.1l0-0.3l-0.1-0.7
			l0-0.2l-0.1-0.1l0.1-0.1l-0.1-0.1l0-0.1l0.1,0l0-0.1h0.1v-0.2l0-0.1c0,0-0.1,0-0.1-0.1l-0.2,0.1c0,0.1-0.1,0.1-0.1,0.2l0,0.1
			l-0.1,0.1l0,0.1l-0.1,0.1v0.1c-0.1,0.1-0.1,0.1-0.1,0.2l-0.1,0l-0.2,0.3l-0.3,0.3l-0.1,0.1l-0.2,0.2l-0.1,0.1l-0.3,0.2l-0.3,0.4
			l-0.1,0c0,0-0.1,0-0.2,0.1h0c-0.1,0-0.1-0.1-0.1-0.2c-0.3-0.1-0.4-0.2-0.4-0.4l0.1-0.1c0-0.1-0.1-0.3-0.1-0.4l-0.1,0l0-0.1
			c0,0,0-0.1,0-0.1c0,0,0-0.1,0-0.2l0.1-0.4c0,0,0,0,0-0.1c0,0,0-0.1,0-0.1c0-0.1,0-0.1,0-0.1c0,0,0-0.1,0-0.1l0,0
			c0.1-0.1,0.1-0.1,0.1-0.2c0,0,0-0.1,0-0.1c0,0,0,0,0,0c0,0,0,0,0.1-0.1c-0.1,0-0.1,0-0.1-0.1s0-0.1,0.1-0.1v0c0-0.1,0-0.1,0.1-0.2
			c0-0.1,0.1-0.1,0.1-0.1l-0.1,0l0.1-0.2v-0.1c0-0.1,0-0.3,0.1-0.4l0-0.2l0,0c0,0,0-0.1,0-0.1c0,0,0,0,0.1,0v-0.2c0,0,0.1,0,0.1-0.1
			c0,0,0,0,0-0.1c0,0,0.1-0.1,0.1-0.2c0.1-0.1,0.1-0.2,0.1-0.2h0c0.1,0,0.1,0,0.1-0.1c0,0,0,0,0-0.1c0.1,0,0.2,0,0.2-0.1l0.2-0.1
			l0.5,0v0l0.4,0.1h0c0.1,0,0.1,0,0.1,0.1l0.1,0c0,0.1,0.1,0.1,0.1,0.1l0.1,0l0.1,0.1l0.2,0.1v0.1c0.1-0.1,0.2-0.1,0.4-0.2v0.2h-0.1
			l0.1,0.1l0,0l0.1,0.3l-0.1,0.1l0,0.2c0,0.1,0,0.1-0.1,0.2l0.1,0.1c0,0,0,0-0.1,0.1c0,0,0,0.1,0,0.2c0,0,0,0,0,0.1l0,0.1l0,0.1
			l0,0.1l0,0.1l-0.1,0.1l0,0.2l0,0l0,0l0,0c0,0,0,0,0,0c0,0,0,0.1,0,0.1l0,0.1l-0.1,0.1c0,0,0,0.1,0,0.1l0,0.1l-0.1,0.1
			c0,0.1,0.1,0.1,0.1,0.1c-0.1,0.1-0.1,0.2-0.1,0.4l0.1,0l0,0.1c0,0,0,0,0,0.1c0,0.1,0,0.1-0.1,0.2h0.1l0,0.2l0.2,0l0.1,0.1
			c0,0,0,0,0,0c0,0,0,0.1,0.1,0.1h0C269.2,41.3,269.2,41.3,269.3,41.4C269.2,41.3,269.2,41.4,269.3,41.4z M268.8,37.6l-0.1-0.2
			l-0.2-0.1l-0.3-0.3c0,0-0.1,0-0.1,0c0,0,0,0-0.1,0l-0.1-0.1h-0.2l-0.1-0.1l-0.1,0l-0.1,0l-0.1,0l-0.2,0c-0.1,0-0.2,0-0.4,0.1l0,0
			l-0.1,0l0,0l-0.1,0v0.1c-0.1,0-0.1,0.2-0.2,0.3c-0.1,0.2-0.1,0.4-0.2,0.5l0.1,0l-0.1,0.1l0,0.1c-0.1,0.1-0.1,0.2-0.1,0.3v0.1
			l-0.1,0.1v0.2c-0.1,0.1-0.1,0.1-0.1,0.2l0,0v0.2l0,0.1c0,0.1,0,0.2,0,0.3L266,40c0,0-0.1,0.1-0.1,0.1l0,0.1l-0.1,0.1l0.1,0.2
			l-0.1,0.1l0,0.3l0,0.1l0.1,0l0,0.1c0.1,0,0.1,0.1,0.1,0.1l0.2-0.1c0-0.1,0.1-0.2,0.2-0.2l0-0.1c0.1,0,0.2,0,0.2,0c0,0,0,0,0-0.1
			c0,0,0-0.1,0.1-0.1h0c0,0,0,0,0,0l0.2-0.2h0l0.1-0.1c0,0,0.1-0.1,0.2-0.1l0.1-0.2c0.1-0.1,0.2-0.1,0.2-0.2h0.1l0.1-0.1l0-0.1
			l0.1,0c0,0,0,0,0-0.1c0,0,0,0,0.1-0.1c0-0.1,0.1-0.1,0.1-0.2l0,0c0-0.1,0-0.1,0.1-0.2c0-0.1,0-0.1,0.1-0.1c0,0,0.1,0,0.1,0h0.1
			l0-0.1c0,0,0,0,0,0c0,0,0,0,0-0.1c0.1-0.1,0.1-0.2,0.1-0.2l0-0.1l0.1-0.1l0-0.1c0-0.1,0.1-0.1,0.1-0.2l0.1-0.1L268.8,37.6z"/>
		<path fill="#F48CB1" d="M276.8,39.9c0,0.1,0,0.1-0.1,0.2l0,0c0,0,0,0.1-0.1,0.2c-0.1,0.1-0.1,0.2-0.1,0.3l-0.1,0
			c0,0.1-0.1,0.2-0.2,0.3c0,0,0,0.1-0.1,0.1h0c0,0.1,0,0.1-0.1,0.1l-0.1,0.1l-0.1,0l-0.1,0.1c0,0,0,0-0.1,0l-0.2,0l-0.1,0l-0.1,0
			l0,0l-0.1,0l-0.1-0.1h-0.1c0,0,0-0.1,0-0.1c-0.1-0.1-0.2-0.2-0.2-0.3v-0.1l-0.1-0.1v-0.1l0.1,0l0-0.1l-0.1-0.2l0-0.3l-0.1-0.2
			v-0.3c-0.1-0.5-0.1-0.8-0.1-0.9v0c0-0.1,0-0.1,0-0.1c0,0,0,0,0-0.1c-0.1-0.1-0.1-0.2-0.1-0.3l-0.1,0l-0.2,0.2l-0.1,0.1l-0.4,0.4
			l-0.1,0.3c-0.1,0.1-0.1,0.2-0.1,0.2c0,0.1-0.1,0.1-0.2,0.2l0,0.1l-0.1,0.2l-0.1,0v0.1h-0.1l-0.2,0.2c0,0.1-0.1,0.2-0.1,0.2
			c0,0-0.1,0.1-0.1,0.2s-0.1,0.1-0.1,0.1l0,0c-0.1,0.1-0.1,0.2-0.2,0.3s-0.1,0.1-0.2,0.2c0,0.1-0.1,0.2-0.1,0.2l0,0.1
			c0,0,0,0.1-0.1,0.1c0,0-0.1,0.1-0.3,0.1c-0.1,0-0.1-0.1-0.1-0.2c0-0.1-0.1-0.2-0.1-0.2l0-0.1l0.1-0.1l0-0.1l0.1-0.1l-0.1-0.1
			l0-0.1l-0.1-0.2l0.1-0.1l0-0.1c0-0.1,0.1-0.2,0.1-0.4v-0.1c0,0,0-0.1-0.1-0.1c0.1,0,0.1-0.1,0.1-0.1l0-0.2l0.1-0.4l0-0.1l0-0.2
			l-0.1-0.1l0-0.3l0-0.1l0-0.2l0-0.3l0.1-0.1c0.1,0,0.2,0.1,0.2,0.1c0,0,0,0,0,0.1c0,0,0,0.1,0,0.2l0.1,0.1l0,0.2l0,0.4l-0.1,0.2
			l0,0.3v0.1l-0.1,0.2l0.1,0.2c0,0,0,0.1-0.1,0.3l0.1,0.1c-0.1,0.2-0.1,0.3-0.1,0.4l0,0.4l0,0.1l0.1-0.1h0.1l0.1-0.2
			c0.1,0,0.1-0.1,0.1-0.1c0-0.1,0.1-0.1,0.2-0.1c0-0.1,0-0.1,0.1-0.2c0,0,0.1,0,0.1-0.1c0.1-0.1,0.1-0.1,0.2-0.2v-0.1h0
			c0,0,0.1,0,0.1-0.1c0,0,0.1-0.1,0.1-0.1c0-0.1,0.1-0.2,0.1-0.2l0.1-0.2l0.1-0.3c0-0.1,0-0.1,0-0.1c0,0,0,0,0,0
			c0.1-0.1,0.2-0.2,0.2-0.3v-0.1c0.1,0,0.2-0.1,0.2-0.1c0,0,0,0,0-0.1s0,0,0,0c0,0,0-0.1,0-0.1c0,0,0.1,0,0.1,0
			c0.1-0.2,0.1-0.3,0.2-0.3c0,0,0.1,0,0.1,0c0-0.1,0-0.2,0.1-0.2c0,0,0.1-0.1,0.2-0.2l0.1-0.1h0c0.1,0.1,0.1,0.1,0.1,0.1l0,0.1
			l0.1,0l0,0.2l0.1,0.1l0,0.2l0.1,0.3v0.3l0.1,0.4l0,0.4l0.1,0.3l0,0.3c0,0,0,0,0.1,0.1c0,0.1,0.1,0.1,0.1,0.2l0,0v0.2l0.1,0.1
			l0,0.1l0.1,0v0.1c0.1,0,0.1,0.1,0.2,0.1c0.1,0,0.1,0,0.2,0c0,0,0,0,0.1,0c0,0,0.1,0,0.1-0.1c0.1,0,0.1,0,0.1-0.1v0
			c0,0,0.1-0.1,0.2-0.1c0,0,0.1-0.1,0.1-0.1l0,0c0,0,0,0,0-0.1c0,0,0.1-0.1,0.1-0.1c0,0,0.1-0.1,0.1-0.1l0.1-0.1
			c0-0.1,0.1-0.2,0.2-0.3l0.1-0.1h0.1L276.8,39.9z"/>
		<path fill="#F48CB1" d="M278.3,37.6l0.7,0l0.7,0l0.2,0l0.1,0h0.4c0.1,0,0.1,0,0.1,0.1c0,0.1-0.1,0.1-0.2,0.1c0,0,0,0-0.1,0
			c0,0-0.1,0-0.1,0.1l-0.1,0l-0.3,0c-0.1,0.1-0.3,0.1-0.4,0.1l-0.2,0l-0.1,0.1h-0.1v-0.1l-0.2,0.1h-0.1l0,0.1c-0.1,0-0.2,0-0.3,0
			c0,0,0,0.1-0.1,0.1c0,0,0,0-0.1,0l-0.1,0l-0.1,0.1l0,0.5l0,0.3l0,0.4l0,0.4l0,0.2v0.2l0.1,0.3v0c0,0.1,0.1,0.2,0.2,0.3l0,0.1
			l0.2,0l0.1,0.1l0.4,0.1l0.5-0.1l0.1,0l0.4-0.2l0.1,0c0,0,0.1,0.1,0.1,0.1c0,0.1,0,0.1-0.1,0.2l-0.1,0l-0.2,0.1l-0.3,0l-0.1,0.1
			l-0.1-0.1c-0.1,0.1-0.2,0.1-0.4,0.1l-0.2,0h-0.1l-0.4-0.2l-0.2-0.3l-0.1-0.1l-0.2-0.5l-0.1-0.5l0-0.2l-0.1-0.1l0-0.1l0-0.2
			l0.1-0.1l0-0.1l0-0.1l0-0.1l0-0.2l0-0.1l0,0v-0.4c0-0.1,0-0.1-0.1-0.1c0,0,0,0-0.1,0l-0.1-0.1l-0.2,0L277,38h-0.1
			c-0.1,0-0.1,0-0.1-0.1l0-0.2l-0.1-0.1l0-0.1l0.2,0l0.1,0l0.2,0.1h0.4l0-0.2v-0.2l-0.1-0.2l0.1-0.1c0,0,0-0.1,0-0.1
			c0,0,0-0.1-0.1-0.1l0-0.4l-0.1-0.1l0-0.1c-0.1,0-0.1,0-0.1-0.1l0.1-0.3c0.1-0.1,0.1-0.1,0.1-0.1c0.2,0.1,0.3,0.2,0.3,0.2v0l0,0.1
			c0,0.1,0.1,0.2,0.1,0.2v0c0,0.1,0,0.1,0,0.1c0,0,0,0.1,0,0.1l0,0.1l0,0.1l-0.1,0.1l0.1,0.3l0,0.3l0,0.1l-0.1,0.1l0.1,0.3h0.2
			L278.3,37.6z"/>
	</g>
</g>
<g>
</g>
<g>
</g>
<g>
</g>
<g>
</g>
<g>
</g>
<g>
</g>
<g>
</g>
<g>
</g>
<g>
</g>
<g>
</g>
<g>
</g>
<g>
</g>
<g>
</g>
<g>
</g>
<g>
</g>
</svg>
